<svg xmlns="http://www.w3.org/2000/svg" xmlns:xlink="http://www.w3.org/1999/xlink" version="1.1" x="0px" y="0px" viewBox="0 0 100 100" style="enable-background:new 0 0 100 100;" xml:space="preserve"><style type="text/css">
	.st0{fill:#FFFFFF;stroke:#000000;stroke-width:4;stroke-miterlimit:10;}
	.st1{fill:none;stroke:#000000;stroke-width:4;stroke-miterlimit:10;}
	.st2{fill:#FFFFFF;}
	.st3{fill:none;stroke:#FFFFFF;stroke-width:4;stroke-miterlimit:10;}
	.st4{stroke:#FFFFFF;stroke-width:4;stroke-miterlimit:10;}
</style><g><g><path d="M66,43.6L62,43V13.2L58.8,10h-7.7L48,13.2V16h-6.8L38,19.2v24L36.8,42h-5.7L28,45.2v31.7L45.2,94h15.7L78,76.8V51.5    l-6.2-7.1L66,43.6z M74,75.2L59.2,90H46.8L32,75.2V46.8l0.8-0.8h2.3l2.8,2.8V62h4V20.8l0.8-0.8h4.3l0.8,0.8V46h4V14.8l0.8-0.8h4.3    l0.8,0.8V47h4l4,0.6l3.8,0.6L74,53V75.2z"></path><polygon points="23.6,14.7 12.3,26 23.6,37.3 26.4,34.5 17.9,26 26.4,17.5   "></polygon><polygon points="76.4,37.3 87.7,26 76.4,14.7 73.6,17.5 82.1,26 73.6,34.5   "></polygon></g></g></svg>