<svg xmlns="http://www.w3.org/2000/svg" xmlns:xlink="http://www.w3.org/1999/xlink" version="1.1" x="0px" y="0px" viewBox="0 0 100 100" style="enable-background:new 0 0 100 100;" xml:space="preserve"><style type="text/css">
	.st0{fill:#FFFFFF;stroke:#000000;stroke-width:4;stroke-miterlimit:10;}
	.st1{fill:none;stroke:#000000;stroke-width:4;stroke-miterlimit:10;}
	.st2{fill:#FFFFFF;}
	.st3{fill:none;stroke:#FFFFFF;stroke-width:4;stroke-miterlimit:10;}
	.st4{stroke:#FFFFFF;stroke-width:4;stroke-miterlimit:10;}
</style><g><path d="M68.2,8h-7.1l-2.6,2.6L56.2,6h-9.5l-3,6l5.8,11.7l-13.9-8.2L30,21.2v6l12,7v2.8L22.4,50.3l3.2,6.4l-3.9,4.8l6.5,21.8   L49.5,94H76V23.5L68.2,8z M49.2,10h4.5L62,26.5v14.8l-6-1.8v-12L48.2,12L49.2,10z M34,24.9v-2l2.3-2.3L52,29.7l0,0v8.6l-6-1.8v-4.7   L34,24.9z M72,90H50.5l-18.8-9.4l-5.5-18.2L29,59h3.4l1.9,10.3L46,75.2l12-6V53.8l-12.1-6L33.5,55h-4.2l-1.7-3.3l16.8-11.5L66,46.7   V25.5l-5.6-11.1l2.4-2.4h2.9L72,24.5V90z M36.2,58l9.9-5.7l7.9,4v10.5l-8,4l-8.2-4.1L36.2,58z"></path></g></svg>