<svg xmlns="http://www.w3.org/2000/svg" xmlns:xlink="http://www.w3.org/1999/xlink" version="1.1" x="0px" y="0px" viewBox="0 0 90 90" enable-background="new 0 0 90 90" xml:space="preserve"><path d="M39.224,22.667c-0.309,0.327-0.444,0.716-0.407,1.17c0.037,0.453,0.228,0.824,0.571,1.114l5.575,4.95  c0.326,0.308,0.716,0.443,1.17,0.408c0.453-0.037,0.824-0.218,1.115-0.543c0.308-0.345,0.445-0.744,0.407-1.197  c-0.019-0.309-0.109-0.581-0.272-0.817c0.128,0.037,0.272,0.045,0.436,0.028c0.453-0.037,0.826-0.219,1.115-0.544  c0.309-0.345,0.444-0.744,0.409-1.197c-0.037-0.454-0.218-0.826-0.545-1.115l-5.603-4.949c-0.343-0.309-0.744-0.445-1.196-0.409  c-0.454,0.037-0.825,0.227-1.115,0.572c-0.309,0.326-0.444,0.716-0.408,1.169c0.018,0.309,0.118,0.58,0.299,0.816  c-0.145-0.018-0.289-0.027-0.435-0.027C39.886,22.132,39.516,22.322,39.224,22.667z"></path><path d="M75.271,12.305c-0.384-1.299-1.063-2.466-2.04-3.508c-0.019-0.019-0.036-0.037-0.054-0.054  c-0.129-0.167-0.252-0.294-0.367-0.383c-1.752-1.666-3.856-2.5-6.309-2.5c-1.715,0-3.264,0.421-4.649,1.265  c-2.756-2.678-6.055-4.015-9.9-4.012c-3.921-0.002-7.277,1.375-10.063,4.134c-0.352-0.036-0.713-0.054-1.087-0.054  c-3.025-0.001-5.612,1.072-7.765,3.222c-1.492,1.494-2.47,3.204-2.936,5.126l0.013-0.014c-0.216,0.849-0.324,1.751-0.327,2.708  c0.004,1.368,0.232,2.642,0.681,3.819c0.161,0.417,0.446,0.716,0.857,0.898c0.413,0.186,0.83,0.2,1.25,0.041  c0.417-0.161,0.716-0.446,0.897-0.856c0.186-0.413,0.2-0.831,0.041-1.252c-0.311-0.816-0.465-1.7-0.462-2.65  c-0.002-0.677,0.072-1.316,0.218-1.918l0.015-0.013c0.332-1.342,1.02-2.533,2.065-3.576c1.512-1.512,3.33-2.27,5.453-2.271  c0.503-0.003,0.983,0.034,1.441,0.108c0.278,0.048,0.55,0.025,0.816-0.069c0.266-0.094,0.491-0.248,0.68-0.462  c0.107-0.119,0.229-0.246,0.367-0.38c2.165-2.183,4.78-3.275,7.845-3.278c3.049,0.004,5.653,1.096,7.818,3.278  c0.226,0.228,0.442,0.463,0.653,0.706c0.296,0.341,0.667,0.526,1.115,0.559c0.45,0.033,0.85-0.098,1.195-0.394  c1.072-0.934,2.328-1.401,3.768-1.401c1.633,0,3.024,0.576,4.174,1.727c0.024,0.022,0.046,0.044,0.068,0.068  c0.015,0.013,0.028,0.026,0.04,0.04c0.649,0.674,1.103,1.431,1.36,2.271l0.014,0.027c0.167,0.538,0.249,1.118,0.244,1.741  c0.001,0.245-0.012,0.489-0.04,0.734v0.014c-0.149,1.287-0.705,2.416-1.672,3.385l-0.015,0.013  c-0.828,0.813-1.752,1.352-2.772,1.619c-0.419,0.102-0.745,0.332-0.981,0.693c-0.232,0.367-0.309,0.76-0.23,1.184  c0.109,0.595,0.164,1.23,0.164,1.903c-0.003,2.739-0.977,5.073-2.924,7.003c-1.913,1.93-4.239,2.895-6.975,2.896  c-1.262,0.002-2.444-0.206-3.549-0.625c-0.422-0.159-0.838-0.146-1.253,0.04c-0.409,0.183-0.695,0.482-0.855,0.898  c-0.159,0.42-0.146,0.837,0.04,1.251c0.183,0.41,0.481,0.696,0.897,0.856c1.469,0.559,3.043,0.841,4.72,0.843  c3.644,0.002,6.738-1.281,9.286-3.849c2.585-2.566,3.878-5.67,3.876-9.313c0-0.373-0.014-0.736-0.041-1.088  c1.041-0.453,2.008-1.114,2.896-1.985l0.014-0.014c1.526-1.53,2.396-3.315,2.609-5.357c0.045-0.367,0.067-0.734,0.067-1.101  c-0.004-0.973-0.14-1.879-0.407-2.72L75.271,12.305z"></path><path d="M72.92,63.84c-1.403-1.513-2.541-2.497-3.414-2.95c-0.3-0.166-0.582-0.287-0.843-0.367  c-0.053-0.491-0.115-0.991-0.189-1.496l-0.015-0.013c-0.132-0.846-0.405-1.906-0.815-3.183v0.015  c-1.507-4.743-3.469-8.312-5.888-10.701c-2.673-2.652-5.234-4.401-7.683-5.249c-3.588-1.271-6.616-0.664-9.083,1.821  c-0.027,0.029-0.054,0.056-0.081,0.082c-0.156,0.172-0.324,0.385-0.503,0.638c-1.688-0.062-3.081,0.368-4.174,1.292  c-0.626-0.516-1.216-1.056-1.768-1.619l6.022-9.544c0.206-0.324,0.288-0.672,0.245-1.047c-0.04-0.379-0.194-0.705-0.462-0.979  l-4.352-4.351c-0.24-0.237-0.526-0.387-0.856-0.449c-0.327-0.064-0.643-0.026-0.952,0.109c-0.31,0.134-0.554,0.342-0.734,0.625  l-4.787,7.67c-1.694-1.685-3.463-2.174-5.303-1.47h-0.027c-0.07,0.026-0.161,0.062-0.272,0.109c-0.012,0.004-0.026,0.008-0.04,0.013  c-2.942,1.074-4.116,3.323-3.522,6.746c0.025,0.139,0.051,0.281,0.083,0.422c-0.695-0.006-1.383,0.143-2.067,0.448  c-0.045,0.019-0.09,0.042-0.136,0.068l-0.027,0.014c-0.069,0.021-0.138,0.049-0.205,0.082c-3.033,1.506-4.038,4.053-3.018,7.642  l-0.013-0.027c0.364,1.385,0.945,2.717,1.739,3.998l-0.013-0.015c0.905,1.498,2.106,2.935,3.604,4.312l0.013,0.014  c2.571,2.42,5.527,4.576,8.865,6.473c0.525,0.298,1.023,0.588,1.496,0.869c0.01,0.005,0.019,0.009,0.028,0.015  c1.671,1.044,3.084,2.046,4.242,3.004c-0.307-0.029-0.642-0.071-1.007-0.123h-0.014c-4.395-0.587-8.052-0.269-10.973,0.952  c-3.619,1.464-5.006,4.002-4.16,7.615c0.681,3.831,3.758,5.101,9.232,3.808c3.811-0.896,7.542-0.366,11.19,1.592  c3.65,1.946,7.277,2.719,10.877,2.311c0.992,1.357,2.252,2.34,3.781,2.95c0.648,0.262,1.352,0.456,2.108,0.585l0.026,0.015  c1.119,0.191,2.335-0.018,3.646-0.626h0.012c2.321-1.047,4.969-3.625,7.941-7.737c4.651-6.415,5.403-11.197,2.258-14.345  L72.92,63.84z M34.125,37.883c0.015-0.023,0.029-0.046,0.042-0.068c0.023-0.039,0.045-0.081,0.068-0.123l4.826-7.737l1.985,1.985  l-9.327,14.767c-0.487-0.557-0.941-1.133-1.359-1.727c-0.121-0.172-0.238-0.34-0.354-0.502L34.125,37.883z M28.129,35.829  c0.011-0.005,0.025-0.009,0.041-0.013c0.053-0.018,0.092-0.033,0.122-0.041h-0.026c0.829-0.141,1.671,0.276,2.528,1.251  l-3.046,4.868c-0.081-0.074-0.162-0.146-0.244-0.217c-0.416-0.878-0.707-1.779-0.87-2.707  C26.361,37.404,26.858,36.356,28.129,35.829z M68.039,76.297c-2.538,3.501-4.77,5.728-6.691,6.675h0.015  c-0.648,0.298-1.247,0.416-1.795,0.354l0.026,0.014c-0.513-0.088-0.988-0.22-1.428-0.394c-0.632-0.263-1.193-0.625-1.686-1.089  c2.464-1.318,4.427-3.1,5.888-5.343c0.246-0.383,0.323-0.796,0.231-1.237c-0.094-0.436-0.328-0.776-0.708-1.02  c-0.377-0.247-0.784-0.325-1.223-0.231c-0.436,0.09-0.776,0.32-1.02,0.693c-1.445,2.19-3.48,3.837-6.106,4.936  c-3.211,0.524-6.446-0.089-9.707-1.836c-4.402-2.358-8.904-2.987-13.505-1.89c-2.993,0.707-4.756,0.253-5.288-1.359  c-0.388-1.826,0.347-3.114,2.203-3.862c2.477-0.988,5.58-1.232,9.3-0.733h0.014c2.457,0.343,4.053,0.312,4.785-0.096  c1.174-0.517,1.615-1.323,1.319-2.42c-0.043-0.511-0.428-1.123-1.156-1.836v-0.014c-1.463-1.431-3.48-2.944-6.051-4.542  c-0.01-0.003-0.018-0.008-0.027-0.013c-0.499-0.296-1.024-0.6-1.577-0.912c-3.109-1.764-5.86-3.771-8.253-6.023l-0.014-0.014  c-1.253-1.157-2.26-2.363-3.019-3.617l-0.014-0.015c-0.619-1.002-1.073-2.045-1.359-3.126c-0.005-0.007-0.01-0.017-0.013-0.028  c-0.495-1.749-0.055-3.014,1.318-3.793c0.105-0.042,0.514-0.105,1.224-0.19c0.713-0.086,1.804,0.771,3.277,2.57  c0.228,0.301,0.46,0.618,0.694,0.951c0.83,1.183,1.778,2.307,2.841,3.373c0.031,0.031,0.063,0.063,0.096,0.095  c0.048,0.069,0.104,0.131,0.162,0.19l0.042,0.041c1.191,1.205,2.564,2.315,4.119,3.331l-0.014-0.014  c1.386,0.944,3.122,2.02,5.208,3.223c0.393,0.225,0.805,0.281,1.238,0.164c0.435-0.118,0.767-0.372,0.993-0.762  c0.226-0.392,0.28-0.804,0.164-1.237c-0.12-0.436-0.374-0.767-0.762-0.993c-2.01-1.153-3.682-2.182-5.018-3.087l-0.013-0.014  c-0.982-0.643-1.879-1.332-2.694-2.065l2.626-4.161c0.477,0.461,0.979,0.91,1.508,1.345c0.02,0.013,0.039,0.026,0.055,0.041  c0.341,0.258,0.727,0.557,1.155,0.896l0.027,0.027l0.042,0.028c0.86,0.706,2.465,2.319,4.813,4.841  c0.311,0.328,0.69,0.499,1.143,0.516c0.449,0.018,0.838-0.128,1.17-0.435c0.329-0.31,0.501-0.691,0.515-1.143  c0.017-0.447-0.126-0.837-0.433-1.169c-1.571-1.687-2.832-2.991-3.782-3.917c0.683-0.282,1.521-0.327,2.517-0.136  c0.059,0.012,0.118,0.021,0.176,0.028c1.246,0.325,3.096,1.414,5.547,3.263c0.357,0.271,0.756,0.375,1.198,0.313  c0.448-0.065,0.81-0.278,1.088-0.64c0.271-0.356,0.374-0.756,0.312-1.196c-0.064-0.448-0.276-0.811-0.64-1.089  c-1.954-1.477-3.609-2.537-4.963-3.181c1.387-0.899,3.004-1.022,4.855-0.367c2.047,0.747,4.2,2.242,6.459,4.486  c2.076,2.106,3.777,5.229,5.098,9.368v0.014c0.352,1.081,0.588,1.979,0.708,2.692l-0.014-0.013c0.15,1.015,0.246,1.989,0.286,2.923  c-0.001,0.023-0.001,0.046,0,0.068c-0.022,1.557-0.222,3.048-0.599,4.474l0.013-0.067c-0.101,0.33-0.191,0.67-0.272,1.02  c-0.101,0.436-0.033,0.843,0.205,1.224c0.241,0.385,0.581,0.63,1.02,0.734c0.437,0.102,0.844,0.034,1.225-0.205  c0.384-0.24,0.629-0.58,0.733-1.02c0.064-0.266,0.139-0.524,0.218-0.774c0.004-0.023,0.009-0.047,0.014-0.067  c0.301-1.143,0.505-2.321,0.612-3.537c0.518,0.428,1.126,1.016,1.822,1.769l0.012,0.015C72.228,68.244,71.399,71.652,68.039,76.297z  "></path></svg>