<?xml version="1.0" encoding="UTF-8" standalone="no"?>
<svg
   xmlns:dc="http://purl.org/dc/elements/1.1/"
   xmlns:cc="http://creativecommons.org/ns#"
   xmlns:rdf="http://www.w3.org/1999/02/22-rdf-syntax-ns#"
   xmlns:svg="http://www.w3.org/2000/svg"
   xmlns="http://www.w3.org/2000/svg"
   xmlns:sodipodi="http://sodipodi.sourceforge.net/DTD/sodipodi-0.dtd"
   xmlns:inkscape="http://www.inkscape.org/namespaces/inkscape"
   version="1.1"
   x="0px"
   y="0px"
   viewBox="0 0 90 90"
   enable-background="new 0 0 90 90"
   xml:space="preserve"
   id="svg2"
   inkscape:version="0.91 r13725"
   sodipodi:docname="no.svg"><metadata
     id="metadata10"><rdf:RDF><cc:Work
         rdf:about=""><dc:format>image/svg+xml</dc:format><dc:type
           rdf:resource="http://purl.org/dc/dcmitype/StillImage" /></cc:Work></rdf:RDF></metadata><defs
     id="defs8" /><sodipodi:namedview
     pagecolor="#ffffff"
     bordercolor="#666666"
     borderopacity="1"
     objecttolerance="10"
     gridtolerance="10"
     guidetolerance="10"
     inkscape:pageopacity="0"
     inkscape:pageshadow="2"
     inkscape:window-width="786"
     inkscape:window-height="480"
     id="namedview6"
     showgrid="false"
     inkscape:zoom="2.6222222"
     inkscape:cx="45"
     inkscape:cy="45"
     inkscape:window-x="108"
     inkscape:window-y="4"
     inkscape:window-maximized="0"
     inkscape:current-layer="svg2" /><path
     d="m 37.781825,12.276468 c 0,0.039 -0.016,0.066 -0.049,0.08 0.115,0.117 0.213,0.24 0.291,0.373 2.047,0.314 3.977,1.025 5.783,2.133 1.473,0.914 2.615,1.953 3.426,3.117 0.148,0.035 0.293,0.09 0.438,0.162 0.063,0.033 0.115,0.059 0.16,0.08 0.076,0.002 0.174,0.002 0.291,0 0.465,-0.014 0.851,-0.219 1.164,-0.613 l 0.017,-0.016 c 0.422,-0.566 0.633,-1.273 0.63,-2.117 -0.015,-0.664 -0.23,-1.33 -0.646,-2.004 -0.047,-0.061 -0.09,-0.125 -0.129,-0.193 -0.41,-0.596 -0.96,-1.205 -1.648,-1.826 -1.627,-1.451 -3.297,-2.1780001 -5.01,-2.1820001 l -0.016,0 c -1.607,0.02 -2.834,0.348 -3.684,0.9860001 l -0.016,0.016 c -0.646,0.56 -0.98,1.228 -1.002,2.004 z m -9.629,9.564 c 0,0.059 0,0.117 0,0.178 1.316,-0.418 2.695,-0.629 4.135,-0.629 1.313,0 2.6,0.145 3.861,0.436 l -0.031,0 c 1.668,0.357 3.268,0.992 4.799,1.906 0.289,0.143 0.563,0.299 0.824,0.469 l 0.016,0.016 c 0.494,0.344 0.947,0.699 1.357,1.066 0.33,-0.098 0.627,-0.227 0.889,-0.387 l 0.016,-0.016 c 0.561,-0.406 0.84,-1.031 0.84,-1.875 -0.047,-1.982 -1.074,-3.598 -3.086,-4.848 -1.908,-1.166 -3.992,-1.748 -6.252,-1.744 -1.908,-0.004 -3.621,0.539 -5.139,1.631 l 0.016,0 c -1.45,1.065 -2.2,2.33 -2.245,3.797 z m -3.297,8.402 c 0.07,1.021 0.641,2.094 1.713,3.215 1.068,-0.252 2.129,-0.418 3.182,-0.5 l 0.018,0 c 1.701,-0.121 3.402,0.02 5.105,0.42 0.021,0.004 0.043,0.01 0.064,0.016 0.18,0.037 0.369,0.074 0.564,0.113 0.076,0.012 0.152,0.029 0.227,0.049 1.061,0.322 1.992,0.727 2.795,1.211 0.021,0 0.043,0 0.066,0 1.166,0 2.109,-0.205 2.826,-0.613 0.637,-0.443 0.955,-1.121 0.953,-2.035 -0.002,-1.256 -0.41,-2.371 -1.229,-3.346 l 0.033,0.049 c -0.441,-0.494 -0.98,-0.963 -1.615,-1.406 l 0.016,0.018 c -0.127,-0.088 -0.262,-0.17 -0.404,-0.242 -0.041,-0.025 -0.084,-0.053 -0.129,-0.082 -1.188,-0.723 -2.432,-1.223 -3.732,-1.502 l -0.031,0 c -0.979,-0.227 -1.975,-0.34 -2.99,-0.34 -1.451,0 -2.814,0.295 -4.088,0.889 -0.021,0.004 -0.043,0.01 -0.064,0.016 -0.055,0.033 -0.119,0.076 -0.193,0.131 -0.148,0.096 -0.299,0.172 -0.453,0.225 -0.27,0.176 -0.561,0.363 -0.871,0.566 -0.244,0.186 -0.514,0.379 -0.809,0.582 -0.635,0.568 -0.952,1.424 -0.954,2.566 z m 11.811,19.986 c 0.109,-0.638 0.363,-1.844 0.76,-3.618 -3.049,0.399 -4.881,0.55 -5.494,0.452 -0.527,-0.063 -0.959,-0.307 -1.293,-0.728 -0.332,-0.419 -0.465,-0.893 -0.402,-1.422 0.063,-0.528 0.305,-0.96 0.727,-1.292 0.418,-0.332 0.893,-0.467 1.422,-0.404 0.609,0.042 2.602,-0.179 5.979,-0.662 0.115,-0.439 0.234,-0.897 0.355,-1.374 l -0.018,0.017 c 0.025,-0.106 0.053,-0.214 0.082,-0.323 -0.287,-0.215 -0.496,-0.5 -0.631,-0.856 -0.188,-0.518 -0.473,-0.97 -0.855,-1.357 -0.67,-0.578 -1.549,-1.037 -2.635,-1.373 -0.193,-0.031 -0.381,-0.063 -0.564,-0.098 -0.02,-0.004 -0.041,-0.01 -0.064,-0.016 -1.33,-0.318 -2.66,-0.432 -3.992,-0.34 l -0.016,0 c -0.98,0.076 -1.973,0.244 -2.973,0.502 -0.016,0.006 -0.033,0.012 -0.049,0.016 -0.313,0.09 -0.625,0.182 -0.936,0.273 -1.041,0.381 -1.988,0.898 -2.846,1.553 -0.023,0.016 -0.045,0.033 -0.064,0.049 -0.156,0.107 -0.328,0.249 -0.518,0.418 -0.047,0.046 -0.096,0.089 -0.145,0.13 l 0.033,-0.016 c -0.055,0.066 -0.115,0.131 -0.178,0.193 -1.607,1.464 -2.465,2.875 -2.57,4.233 0.064,1.307 0.852,2.61 2.359,3.91 l 0.016,0 c 2.967,2.427 7.803,3.138 14.51,2.133 z m 7.271,24.56 c 1.645,-0.769 2.404,-2.664 2.277,-5.688 l 0,-0.017 c -0.17,-4.736 0.293,-7.789 1.389,-9.16 0.91,-1.319 2.656,-2.913 5.236,-4.783 2.039,-1.469 3.456,-3.144 4.25,-5.024 l 0.016,-0.017 c 0.928,-2.186 1.51,-3.548 1.745,-4.087 0.924,-2.12 1.715,-4.641 2.375,-7.563 0.118,-0.52 0.403,-0.924 0.856,-1.211 0.45,-0.289 0.936,-0.375 1.454,-0.258 0.52,0.117 0.924,0.402 1.212,0.855 0.288,0.451 0.375,0.936 0.259,1.455 -0.289,1.282 -0.602,2.494 -0.938,3.634 0.494,0.411 0.974,0.643 1.438,0.695 0.31,0.004 0.606,-0.034 0.889,-0.113 l 0.017,-0.017 c 1.271,-0.433 2.347,-1.559 3.231,-3.376 l 0.016,-0.017 c 1.15,-2.305 1.893,-4.858 2.229,-7.659 l 0,-0.016 c 0.346,-2.748 0.05,-5.494 -0.889,-8.24 l 0.017,0 c -0.646,-1.656 -1.906,-2.719 -3.781,-3.184 -0.04,0.986 -0.32,1.896 -0.84,2.73 -0.256,0.473 -0.638,0.785 -1.146,0.938 -0.512,0.15 -1.001,0.096 -1.471,-0.162 -0.473,-0.254 -0.784,-0.637 -0.938,-1.146 -0.149,-0.51 -0.095,-1 0.162,-1.471 0.57,-1.404 -0.006,-3.262 -1.729,-5.574 -1.637,-1.986 -4.189,-2.814 -7.658,-2.488 0.136,0.549 0.2,1.098 0.194,1.648 -0.003,1.818 -0.498,3.326 -1.486,4.523 l -0.017,0.016 c -0.976,1.24 -2.177,1.924 -3.603,2.053 0.025,0.311 0.037,0.623 0.031,0.938 0.002,2.389 -0.881,4.111 -2.648,5.17 l 0.016,-0.016 c -0.189,0.123 -0.387,0.236 -0.598,0.338 0.408,0.922 0.65,1.902 0.727,2.941 1.303,-0.574 2.762,-0.967 4.379,-1.18 0.53,-0.068 1.01,0.061 1.438,0.389 0.426,0.324 0.673,0.75 0.743,1.277 0.07,0.529 -0.06,1.01 -0.387,1.438 -0.324,0.424 -0.75,0.672 -1.277,0.742 -4.636,0.629 -7.519,3.295 -8.644,7.999 l -0.016,0.016 c -0.211,0.857 -0.41,1.659 -0.598,2.408 -0.002,0.022 -0.008,0.044 -0.016,0.063 l 0,0.049 -0.018,0.113 c -0.008,0.044 -0.018,0.087 -0.031,0.129 -0.838,3.606 -1.273,5.61 -1.309,6.011 0,0.526 -0.01,0.92 -0.033,1.18 -0.008,0.071 -0.018,0.142 -0.031,0.21 -0.098,0.608 -0.26,1.255 -0.486,1.938 -0.006,0.015 -0.01,0.031 -0.016,0.049 -0.324,0.919 -0.922,2.13 -1.793,3.635 -0.68,1.267 -1.256,3.862 -1.729,7.788 -0.406,3.521 0.299,6.122 2.115,7.804 1.75,1.511 3.549,1.947 5.398,1.309 l 0.017,-0.014 z m 23.508,-27.548 0.017,-0.017 c -0.622,0.181 -1.274,0.271 -1.955,0.274 -0.921,0.041 -1.841,-0.206 -2.763,-0.743 -0.11,0.274 -0.223,0.544 -0.339,0.808 -0.239,0.538 -0.821,1.89 -1.745,4.056 l 0.016,-0.016 c -1.015,2.513 -2.873,4.737 -5.574,6.673 -2.116,1.534 -3.56,2.827 -4.33,3.878 -0.582,1.037 -0.809,3.3 -0.678,6.785 l 0,0.017 c 0.214,5.247 -1.396,8.408 -4.832,9.484 l 0.016,-0.017 c -3.191,1.258 -6.283,0.596 -9.273,-1.987 -2.879,-2.366 -4.027,-6.099 -3.441,-11.196 0.563,-4.692 1.299,-7.783 2.213,-9.274 0.359,-0.622 0.666,-1.183 0.922,-1.681 -7.395,0.885 -12.758,-0.198 -16.092,-3.247 l 0.016,0 c -2.586,-2.234 -3.82,-4.54 -3.701,-6.915 -0.051,-2.31 1.203,-4.642 3.766,-6.997 0.016,-0.018 0.031,-0.033 0.047,-0.049 0.156,-0.174 0.301,-0.309 0.438,-0.404 0.246,-0.223 0.479,-0.41 0.695,-0.564 0.021,-0.016 0.043,-0.033 0.064,-0.049 0.559,-0.426 1.146,-0.809 1.76,-1.146 -1.197,-1.586 -1.77,-3.143 -1.711,-4.67 -0.002,-2.621 0.848,-4.527 2.551,-5.719 0.029,-0.023 0.057,-0.045 0.082,-0.066 0.293,-0.191 0.557,-0.375 0.791,-0.549 0.039,-0.027 0.076,-0.055 0.113,-0.08 -0.16,-0.646 -0.242,-1.309 -0.242,-1.988 -0.047,-2.711 1.229,-5.021 3.83,-6.93 l 0.016,0 c 1.752,-1.266 3.686,-2.025 5.801,-2.279 -0.012,-0.115 -0.018,-0.234 -0.016,-0.355 -0.023,-1.932 0.758,-3.5860001 2.342,-4.9590001 l 0.016,-0.018 c 1.389,-1.242 3.447,-1.879 6.172,-1.906 l 0.018,0 c 2.633,-0.084 5.18,0.977 7.642,3.184 0.6,0.539 1.122,1.072 1.566,1.6000001 5.945,-1.0080001 10.185,0.264 12.716,3.813 0.761,1.021 1.37,1.998 1.826,2.924 4.468,0.367 7.291,2.371 8.466,6.012 l 0.017,0 c 1.128,3.322 1.479,6.645 1.05,9.969 l 0,0.016 c -0.397,3.268 -1.27,6.246 -2.617,8.935 l 0.016,-0.017 c -1.491,3.049 -3.387,4.852 -5.692,5.41 z"
     id="path4"
     inkscape:connector-curvature="0"
     style="clip-rule:evenodd;fill-rule:evenodd" /></svg>