<svg xmlns="http://www.w3.org/2000/svg" xmlns:xlink="http://www.w3.org/1999/xlink" version="1.1" x="0px" y="0px" viewBox="0 0 90 90" enable-background="new 0 0 90 90" xml:space="preserve"><path d="M67.489,20.437c-1.123-0.192-2.181-0.17-3.173,0.065c-0.041-1.473-0.11-2.949-0.212-4.427v-0.016  c-0.184-2.185-1.083-3.997-2.701-5.436c-1.663-1.485-3.601-2.152-5.81-2c-1.744,0.116-3.262,0.719-4.557,1.806  c-0.116-0.826-0.23-1.384-0.342-1.676l-0.018-0.033c-0.86-2.305-2.346-4.068-4.458-5.289l-0.016-0.016  c-2.286-1.343-4.764-1.434-7.437-0.277h0.017c-2.718,1.079-4.367,3.417-4.948,7.014v-0.032c-0.1,0.529-0.176,1.109-0.229,1.741  c-0.25-0.15-0.516-0.292-0.796-0.423h-0.017c-1.946-0.903-3.954-1.012-6.021-0.326c-0.013,0.006-0.03,0.012-0.048,0.017  c-2.051,0.745-3.565,2.058-4.54,3.938V15.05c-0.932,1.639-1.263,3.934-0.993,6.884h-0.017c0.167,2.221,2.038,8.86,5.615,19.918  c-1.735,0.775-3.492,2.023-5.274,3.744L21.5,45.611c-3.643,3.496-5.442,7.342-5.403,11.539c-0.076,2.994,1.416,6.385,4.476,10.172  c2.121,2.692,6.006,5.151,11.651,7.371c-0.742,1.217-1.073,2.292-0.993,3.22c-0.132,3.366,1.858,6.056,5.973,8.073l-0.017-0.017  c2.803,1.419,5.909,2.341,9.325,2.767h0.017c3.45,0.413,6.909,0.035,10.383-1.139l0.017-0.018c4.095-1.31,6.228-4.611,6.396-9.894  c0.01-0.281-0.028-0.54-0.116-0.781c7.885-4.479,10.137-13.45,6.754-26.915c2.21-6.784,3.658-13.776,4.346-20.978v-0.016  c0.196-2.039-0.374-3.895-1.708-5.565C71.255,21.759,69.551,20.761,67.489,20.437z M65.488,49.175  c-0.141,0.428-0.15,0.855-0.034,1.287c3.465,13.231,0.601,21.297-8.592,24.199c-0.591,0.173-1.036,0.53-1.335,1.072  c-0.294,0.546-0.354,1.117-0.18,1.708c0.175,0.594,0.534,1.039,1.076,1.335c0.545,0.297,1.115,0.358,1.709,0.179  c0.201-0.055,0.401-0.115,0.601-0.179c-0.336,2.316-1.426,3.842-3.27,4.574l0.017-0.015c-2.814,0.95-5.62,1.265-8.414,0.941H47.05  c-2.871-0.358-5.485-1.126-7.844-2.31l-0.015-0.017c-2.182-1.067-3.337-2.412-3.467-4.038c0.087-0.446,0.379-1.006,0.879-1.674  c0.506,0.156,1.021,0.314,1.546,0.472c0.588,0.176,1.151,0.116,1.693-0.181c0.547-0.294,0.91-0.739,1.089-1.333  c0.178-0.588,0.119-1.15-0.179-1.692c-0.296-0.546-0.741-0.911-1.334-1.09c-0.893-0.269-1.75-0.544-2.572-0.831  c-0.085-0.034-0.171-0.066-0.259-0.097c-6.178-2.115-10.355-4.447-12.53-6.997c-2.235-2.768-3.391-5.215-3.467-7.34  c0.045-3.003,1.391-5.768,4.037-8.3v-0.019c1.676-1.616,3.308-2.686,4.897-3.204c0.015-0.007,0.031-0.011,0.049-0.017  c0.129-0.042,0.253-0.075,0.374-0.097l0.065-0.017c0.073-0.017,0.149-0.037,0.229-0.064c0.019-0.004,0.041-0.009,0.064-0.017  c0.329-0.055,0.66-0.083,0.993-0.082c1.036,0.002,1.893,0.236,2.571,0.701c0.505,0.373,0.744,0.912,0.716,1.61  c-0.033,1.058-0.489,2.023-1.367,2.896v0.017c-1.39,1.402-2.404,2.454-3.044,3.155c-0.098,0.04-0.195,0.09-0.292,0.15  c-0.533,0.313-0.873,0.771-1.025,1.365c-0.148,0.602-0.063,1.172,0.259,1.708c0.32,0.531,0.782,0.873,1.384,1.025  c0.075,0.019,0.149,0.036,0.229,0.05c0.009,0.007,0.019,0.013,0.031,0.017c0.021,0.006,0.043,0.012,0.064,0.016  c0.127,0.028,0.251,0.043,0.375,0.049c0.683,0.05,1.551-0.095,2.604-0.441c0.037-0.009,0.075-0.021,0.112-0.032  c0.632-0.237,1.104-0.372,1.417-0.404c1.384,0.041,2.827,0.621,4.329,1.74h-0.016c1.377,1.028,2.18,2.096,2.407,3.206  c0.083,0.61,0.37,1.104,0.864,1.479c0.492,0.383,1.046,0.534,1.659,0.457c0.61-0.082,1.105-0.369,1.48-0.862  c0.381-0.494,0.533-1.046,0.456-1.66c-0.205-2.23-1.592-4.31-4.165-6.232h-0.017c-1.758-1.309-3.478-2.128-5.16-2.459  c1.298-1.594,1.933-3.34,1.905-5.239c-0.028-2.25-0.875-3.991-2.54-5.222c-1.361-1.055-3.108-1.582-5.239-1.58  c-0.041,0-0.079,0-0.115,0c-3.475-10.74-5.314-17.173-5.516-19.301h-0.018c-0.164-1.868,0.004-3.326,0.506-4.377v-0.017  c0.447-0.839,1.131-1.431,2.051-1.774c0.015-0.006,0.032-0.011,0.048-0.016c0.909-0.295,1.794-0.246,2.651,0.146h-0.015  c0.831,0.388,1.406,1.002,1.724,1.839L32.6,17.329c0.487,1.345,0.931,2.701,1.334,4.068c0.01,0.042,0.021,0.084,0.032,0.129  c0.074,0.213,0.253,0.804,0.538,1.774c0.007,0.049,0.019,0.098,0.032,0.146c1.37,4.697,2.644,10.962,3.825,18.797  c0.09,0.616,0.383,1.107,0.877,1.481c0.504,0.366,1.062,0.501,1.676,0.405c0.609-0.09,1.098-0.381,1.465-0.878  c0.366-0.499,0.502-1.053,0.407-1.66c-1.2-8.056-2.502-14.505-3.906-19.349c-0.825-5.087-1.032-8.869-0.617-11.342v-0.033  c0.288-1.785,1.046-2.984,2.278-3.597h0.017c1.233-0.534,2.378-0.519,3.434,0.049l-0.016-0.016c1.177,0.683,2.005,1.665,2.489,2.945  c0.519,1.638,1.225,11.879,2.116,30.725c-0.002,0.025-0.002,0.054,0,0.081c0.024,0.604,0.265,1.114,0.717,1.53  c0.45,0.418,0.983,0.619,1.594,0.602c0.615-0.021,1.135-0.254,1.563-0.7c0.424-0.443,0.63-0.969,0.617-1.579  c0-0.028,0-0.054,0-0.082c-0.238-15.145-0.379-23.12-0.422-23.922v-0.033c-0.07-0.963,0.202-1.81,0.813-2.539l0.017-0.016  c0.645-0.734,1.448-1.136,2.408-1.204c0.959-0.066,1.8,0.222,2.522,0.862c0.722,0.642,1.123,1.449,1.204,2.424  c0.106,1.524,0.184,3.049,0.229,4.573c0.021,1.081,0.03,2.193,0.032,3.337c-0.009,0.106-0.009,0.215,0,0.325  c-0.009,5.512-0.395,11.842-1.155,18.992c-0.065,0.613,0.097,1.16,0.488,1.643c0.386,0.486,0.886,0.763,1.497,0.832  c0.614,0.064,1.16-0.098,1.643-0.489c0.485-0.386,0.762-0.884,0.83-1.497c0.749-7.009,1.146-13.252,1.188-18.73  c0.015-0.01,0.031-0.02,0.049-0.033c0.682-0.476,1.464-0.638,2.344-0.488h0.017c0.93,0.153,1.701,0.609,2.31,1.367  c0.571,0.711,0.826,1.498,0.766,2.359C69.17,35.664,67.714,42.525,65.488,49.175z"></path></svg>