<svg xmlns="http://www.w3.org/2000/svg" xmlns:xlink="http://www.w3.org/1999/xlink" version="1.1" x="0px" y="0px" viewBox="0 0 90 90" enable-background="new 0 0 90 90" xml:space="preserve"><path d="M55.855,83.902c4.128-1.322,6.277-4.646,6.446-9.975c0.006-0.168-0.005-0.332-0.033-0.49  c0.693-0.457,1.36-0.998,2.003-1.625c2.421-2.34,3.624-5.09,3.608-8.252c0.007-0.32-0.048-0.83-0.163-1.525  c-0.057-0.352-0.09-0.576-0.099-0.674c0-0.063,0-0.121,0-0.18c1.052-0.564,2.106-1.357,3.166-2.379l0.016-0.016  c2.563-2.459,3.82-5.133,3.773-8.023c-0.011-2.523-0.715-4.732-2.116-6.627c-1.603-2.18-3.467-3.23-5.594-3.151  c-0.036,0-0.075,0-0.115,0c-0.092-2.759-0.83-5.275-2.214-7.546l-0.018-0.017c-1.905-3.037-4.229-4.509-6.972-4.413  c-0.947-0.018-1.859,0.134-2.741,0.46c0.506-2.699,0.942-5.455,1.313-8.269c0.763-5.816,0.981-9.764,0.656-11.845  c-0.006-0.01-0.012-0.022-0.017-0.033c-0.418-2.698-1.922-4.771-4.511-6.218l0.016,0.017c-2.55-1.526-5.431-1.494-8.646,0.099  c-3.163,1.287-5.006,5.455-5.528,12.501c-0.007,0.083-0.012,0.165-0.017,0.247c-1.519-4.924-3.429-7.921-5.725-8.991L32.328,6.96  c-3.199-1.72-5.775-1.954-7.726-0.706c-1.889,1.016-3.189,2.542-3.905,4.577v-0.032c-0.646,1.733-0.93,3.706-0.853,5.922v0.033  c0.018,2.013,1.063,6.039,3.132,12.074c1.618,4.726,3.193,8.647,4.726,11.763c-1.395,0.778-2.815,1.861-4.265,3.248  c-3.685,3.529-5.504,7.412-5.464,11.648c-0.079,2.996,1.426,6.402,4.512,10.221c1.756,2.262,4.462,4.152,8.12,5.678  c-0.479,0.92-0.698,1.844-0.656,2.771c-0.13,3.387,1.876,6.111,6.021,8.17c2.843,1.4,5.972,2.314,9.385,2.74  C48.843,85.506,52.343,85.117,55.855,83.902z M64.565,50.715v-0.018c0.803-1.533,1.387-3.141,1.757-4.822  c0.188-0.092,0.37-0.211,0.541-0.361c0.715,0.078,1.365,0.516,1.953,1.313c0.829,1.125,1.238,2.436,1.23,3.938  c-0.047,1.697-0.84,3.283-2.38,4.758l-0.016,0.016c-1.413,1.363-2.791,2.08-4.136,2.15c-0.806,0-1.489-0.201-2.051-0.607  l-0.016-0.016c-0.334-0.277-0.508-0.615-0.524-1.018c-0.001-0.188-0.001-0.313,0-0.377c0.004-0.02,0.01-0.035,0.017-0.051v0.066  c0.126-0.256,0.203-0.514,0.229-0.771C62.454,53.967,63.585,52.566,64.565,50.715z M37.974,78.26  c-2.204-1.092-3.369-2.459-3.496-4.102c0.054-0.4,0.24-0.811,0.558-1.23c1.15,0.332,2.365,0.639,3.643,0.92  c0.608,0.131,1.177,0.027,1.706-0.313c0.53-0.336,0.864-0.807,1.001-1.41c0.132-0.609,0.028-1.18-0.311-1.707  c-0.336-0.529-0.807-0.863-1.412-1.002c-6.635-1.453-11.19-3.641-13.665-6.561c-2.252-2.789-3.417-5.244-3.496-7.367  c0.046-3.025,1.402-5.814,4.069-8.367h-0.017c1.693-1.619,3.329-2.707,4.905-3.264c0.017-0.006,0.033-0.012,0.049-0.018  c0.608-0.17,1.215-0.26,1.821-0.262c1.042,0,1.894,0.225,2.56,0.672c0.508,0.393,0.749,0.947,0.721,1.658  c-0.027,1.072-0.476,2.051-1.344,2.936c-1.428,1.441-2.456,2.496-3.085,3.166c-0.232,0.09-0.452,0.229-0.657,0.41  c-0.431,0.389-0.676,0.871-0.738,1.443c-0.064,0.578,0.073,1.104,0.41,1.576c0.344,0.469,0.798,0.764,1.362,0.885  c0.799,0.24,1.904,0.119,3.313-0.359c0.015-0.014,0.032-0.023,0.05-0.033c0.658-0.242,1.139-0.379,1.443-0.41  c1.41,0.041,2.87,0.631,4.381,1.771c1.382,1.049,2.19,2.143,2.428,3.281c0.09,0.611,0.385,1.105,0.886,1.477  c0.505,0.381,1.069,0.527,1.69,0.443c0.611-0.09,1.104-0.385,1.477-0.887c0.379-0.506,0.527-1.068,0.442-1.689  c-0.243-2.23-1.644-4.309-4.2-6.234c-1.771-1.34-3.511-2.182-5.217-2.525c1.281-1.596,1.91-3.346,1.887-5.25  c-0.022-2.256-0.864-4.017-2.526-5.283l-0.033-0.017c-1.346-1.039-3.097-1.559-5.25-1.559c-0.425-0.001-0.852,0.021-1.279,0.065  c-1.542-3.044-3.133-6.965-4.774-11.763c-1.855-5.393-2.823-8.969-2.905-10.729v-0.032c-0.052-1.578,0.145-2.983,0.591-4.217v-0.033  c0.334-0.938,0.937-1.644,1.805-2.115c0.842-0.287,1.984-0.04,3.429,0.738l-0.015-0.017c1.757,1.169,3.255,4.439,4.494,9.811  l-0.016-0.016c1.437,6.342,3.027,12.319,4.774,17.932c0.176,0.559,0.521,0.985,1.033,1.28c0.512,0.3,1.054,0.387,1.624,0.263  c0.572-0.134,1.025-0.446,1.363-0.937c0.341-0.482,0.472-1.012,0.393-1.591c-1.22-8.668-1.629-15.882-1.23-21.639  c0.353-4.776,1.354-7.696,3.002-8.761c1.644-0.814,3.112-0.891,4.414-0.229l0.016,0.016c1.262,0.697,2.011,1.687,2.248,2.969  l-0.018-0.032c0.244,1.856,0.025,5.39-0.655,10.598c-0.707,5.378-1.657,10.54-2.854,15.486c-0.151,0.46-0.266,0.941-0.345,1.445  c-0.007,0.041-0.012,0.079-0.017,0.114c-0.021,0.202-0.044,0.416-0.065,0.641c-0.065,0.62,0.099,1.173,0.492,1.657  c0.396,0.483,0.906,0.758,1.526,0.819c0.619,0.065,1.172-0.099,1.655-0.491c0.485-0.398,0.758-0.907,0.821-1.526  c0.018-0.171,0.035-0.335,0.05-0.492c0.007-0.038,0.012-0.076,0.017-0.115c0.035-0.182,0.078-0.362,0.131-0.542  c0.022-0.049,0.044-0.104,0.065-0.164c0.281-0.809,0.747-1.58,1.395-2.313l0.017-0.016c0.924-1.005,1.936-1.529,3.035-1.576  c1.193,0.095,2.237,0.854,3.134,2.281l-0.017-0.017c1.055,1.725,1.579,3.649,1.575,5.775c0.005,2.531-0.553,4.873-1.674,7.021  v-0.016c-1.093,2.066-2.472,3.154-4.134,3.264c-0.626,0.018-1.08-0.236-1.363-0.754l0.018,0.016c-0.372-0.76-0.558-1.75-0.558-2.969  c0.051-0.422,0.335-1.309,0.853-2.658c0.006-0.016,0.013-0.031,0.016-0.049c0.539-1.311,0.894-2.104,1.066-2.379  c0.413-0.475,0.599-1.021,0.558-1.64c-0.047-0.621-0.31-1.134-0.786-1.542c-0.474-0.414-1.021-0.599-1.641-0.558  c-0.619,0.049-1.133,0.312-1.542,0.788c-0.394,0.376-1.017,1.602-1.87,3.676c-0.005,0.018-0.01,0.033-0.017,0.049  c-0.831,2.168-1.218,3.605-1.165,4.314c-0.002,2.105,0.359,3.807,1.083,5.102l0.017,0.018c1.112,2.055,2.879,3.092,5.298,3.117  c0.073,1.674,0.813,3.08,2.215,4.215l0.018,0.018c1.238,1.006,2.753,1.541,4.543,1.607c0.021,0.162,0.049,0.348,0.082,0.559v0.016  c0.06,0.354,0.093,0.611,0.099,0.771c-0.015,1.912-0.759,3.58-2.23,5.004c-1.408,1.375-3.005,2.113-4.79,2.213  c-0.626,0.031-1.149,0.277-1.575,0.74c-0.424,0.461-0.62,1.004-0.591,1.623c0.029,0.625,0.275,1.15,0.737,1.574  s1.003,0.621,1.624,0.592c0.379-0.016,0.751-0.049,1.117-0.098c-0.364,2.232-1.453,3.709-3.265,4.428  c-2.833,0.975-5.653,1.285-8.465,0.938C43.026,80.211,40.379,79.439,37.974,78.26z"></path></svg>