<svg xmlns="http://www.w3.org/2000/svg" xmlns:xlink="http://www.w3.org/1999/xlink" version="1.1" x="0px" y="0px" viewBox="0 0 90 90" enable-background="new 0 0 90 90" xml:space="preserve"><path d="M68.17,12.811l0.016,0.017c-1.284-0.258-2.489-0.218-3.616,0.12c-0.008-0.217-0.021-0.434-0.035-0.651V12.28  c-0.191-2.302-1.149-4.209-2.878-5.726l-0.019-0.017c-1.754-1.553-3.775-2.25-6.066-2.091c-2.35,0.161-4.286,1.125-5.813,2.896  l-0.016,0.018c-0.048,0.053-0.093,0.104-0.139,0.153c-0.923-1.615-2.222-2.917-3.89-3.908c-0.012-0.003-0.024-0.009-0.035-0.017  c-2.462-1.488-5.268-1.368-8.417,0.36h0.017c-3.266,1.401-4.448,5.886-3.549,13.456c0.025,0.228,0.065,0.599,0.121,1.113  c-1.235-0.328-2.538-0.495-3.907-0.496c-4.549-0.046-8.332,2.028-11.348,6.222c-2.623,3.603-3.937,7.744-3.942,12.427  c0,3.122,0.474,6.081,1.422,8.878v-0.017c0.74,2.238,1.71,4.112,2.913,5.622c-1.069,2.163-1.601,4.42-1.593,6.771  c-0.081,3.125,1.484,6.679,4.696,10.661l0.018,0.017c1.821,2.356,4.644,4.332,8.467,5.931c-0.513,0.961-0.747,1.926-0.703,2.897  c-0.139,3.545,1.956,6.379,6.291,8.502l-0.017-0.018c2.975,1.494,6.25,2.465,9.822,2.914h0.016c3.658,0.435,7.315,0.035,10.97-1.2  l0.018-0.017c4.313-1.382,6.556-4.85,6.736-10.404c3.601-1.523,6.131-4.163,7.594-7.919c2.049-4.906,2.025-11.927-0.069-21.066  c1.95-8.346,3.3-16.835,4.047-25.471l0.016-0.017c0.179-2.332-0.415-4.452-1.783-6.359C72.104,14.39,70.319,13.202,68.17,12.811z   M21.872,46.989c-0.507-0.857-0.942-1.834-1.303-2.931v-0.017c-0.789-2.321-1.184-4.779-1.183-7.37  c-0.005-3.638,1.012-6.854,3.051-9.651c2.011-2.8,4.515-4.222,7.508-4.268c2.217-0.005,4.177,0.617,5.878,1.869  c0.021,0.012,0.038,0.024,0.051,0.034c0.055,0.042,0.111,0.083,0.171,0.12c3.393,2.081,5.174,4.96,5.349,8.64  c0.112,3.307-1.167,5.969-3.84,7.987c-0.211,0.03-0.423,0.105-0.634,0.223c-0.875-0.238-1.794-0.433-2.76-0.583  c-0.023-0.008-0.046-0.014-0.068-0.017h-0.034c-0.044-0.017-0.089-0.029-0.138-0.035c-0.028-0.007-0.057-0.014-0.086-0.017  c-0.053-0.009-0.104-0.014-0.153-0.017c-0.236-0.037-0.469-0.076-0.703-0.121c-0.15-0.293-0.299-0.71-0.446-1.251v-0.018  c-0.975-3.501-2.528-5.667-4.662-6.496c-0.602-0.268-1.207-0.285-1.817-0.052c-0.609,0.229-1.048,0.641-1.32,1.234  c-0.268,0.599-0.286,1.206-0.052,1.818c0.231,0.608,0.644,1.049,1.235,1.32c0.881,0.538,1.567,1.687,2.057,3.445v-0.017  c0.109,0.406,0.229,0.783,0.359,1.131c-1.725,0.837-3.473,2.11-5.244,3.823l0.016-0.035C22.67,46.15,22.258,46.568,21.872,46.989z   M66.523,47.676c-0.087,0.366-0.087,0.73,0,1.096c1.921,8.17,2.053,14.426,0.394,18.771c-1.585,3.79-4.772,5.914-9.563,6.375  c-0.646,0.06-1.178,0.34-1.595,0.841c-0.417,0.505-0.594,1.082-0.53,1.731c0.058,0.646,0.338,1.178,0.839,1.594  c0.504,0.417,1.081,0.594,1.731,0.531c0.356-0.034,0.704-0.074,1.044-0.12c-0.369,2.353-1.506,3.907-3.41,4.662l0.018-0.017  c-2.966,1.004-5.931,1.335-8.896,0.994h-0.018c-3.004-0.377-5.757-1.187-8.262-2.434l-0.016-0.018  c-2.298-1.123-3.515-2.54-3.652-4.251c0.056-0.421,0.256-0.85,0.6-1.286c1.208,0.345,2.488,0.664,3.839,0.961  c0.631,0.138,1.221,0.028,1.767-0.325c0.553-0.352,0.901-0.843,1.045-1.476c0.138-0.636,0.03-1.229-0.327-1.781  c-0.354-0.555-0.852-0.902-1.491-1.046c-6.94-1.516-11.688-3.796-14.244-6.839l-0.018-0.019c-2.353-2.912-3.57-5.479-3.65-7.695  c0.01-2.045,0.597-3.988,1.764-5.828c0.007-0.012,0.013-0.021,0.018-0.035c0.656-0.992,1.473-1.946,2.451-2.861l0.017-0.035  c1.755-1.698,3.463-2.836,5.125-3.41c0.017-0.006,0.034-0.011,0.052-0.018c0.055-0.016,0.112-0.031,0.171-0.052  c0.604,0.194,1.254,0.21,1.954,0.052c0.941,0.174,1.826,0.391,2.656,0.652c0.352,0.389,0.529,0.885,0.532,1.49  c-0.032,1.134-0.512,2.162-1.439,3.086v0.017c-1.508,1.522-2.589,2.631-3.241,3.325c-0.226,0.098-0.436,0.235-0.633,0.411  c-0.451,0.406-0.708,0.909-0.772,1.509c-0.066,0.603,0.075,1.151,0.429,1.646c0.359,0.489,0.833,0.798,1.422,0.926  c0.845,0.247,1.992,0.116,3.446-0.395l0.034-0.018c0.687-0.251,1.189-0.395,1.507-0.428c1.474,0.043,3,0.649,4.578,1.817  l0.016,0.017c1.444,1.099,2.284,2.224,2.52,3.377c0.086,0.642,0.39,1.161,0.909,1.56c0.519,0.402,1.103,0.562,1.748,0.479  c0.644-0.086,1.163-0.389,1.561-0.907c0.401-0.52,0.561-1.102,0.479-1.749c-0.218-2.314-1.68-4.497-4.388-6.549l-0.016-0.017  c-1.838-1.367-3.644-2.225-5.417-2.571c1.353-1.679,2.016-3.523,1.989-5.536c0.001-1.164-0.217-2.205-0.652-3.12  c3.662-2.954,5.389-6.804,5.177-11.553c-0.181-5.016-2.444-8.998-6.788-11.948l-0.771-3.205c-0.004-0.03-0.01-0.058-0.018-0.085  c-0.06-0.544-0.094-0.824-0.103-0.84c0-0.089-0.005-0.181-0.016-0.274c-0.567-4.797-0.194-7.717,1.114-8.759h0.016  c1.411-0.778,2.661-0.916,3.754-0.411c0.011,0.006,0.022,0.012,0.034,0.018c1.225,0.733,2.093,1.768,2.606,3.102  c0.005,0.018,0.01,0.035,0.017,0.052c0.589,1.792,1.263,5.379,2.022,10.765v0.068c0.003,0.017,0.003,0.035,0,0.052v0.034  c0.005,0.02,0.009,0.043,0.017,0.069c0.019,0.104,0.036,0.212,0.052,0.325c0.01,0.036,0.021,0.076,0.034,0.12  c0.013,0.074,0.02,0.149,0.019,0.223c-0.002,0.095,0.003,0.192,0.016,0.291c0.739,5.792,1.064,11.003,0.978,15.632  c-0.01,0.65,0.213,1.209,0.668,1.68c0.449,0.476,0.999,0.722,1.646,0.738c0.649,0.01,1.209-0.213,1.68-0.669  c0.475-0.45,0.721-0.999,0.737-1.646c0.096-4.805-0.236-10.21-0.995-16.215c-0.014-0.32-0.053-0.639-0.118-0.959l0.033,0.119  c-0.019-0.12-0.033-0.24-0.051-0.359c-0.003-2.649-0.084-5.305-0.239-7.971c0-0.016,0-0.034,0-0.051  c-0.086-1.003,0.199-1.884,0.856-2.64l0.017-0.017c0.665-0.777,1.51-1.201,2.537-1.268h0.018c0.983-0.066,1.852,0.237,2.604,0.908  l0.017,0.018c0.774,0.673,1.203,1.525,1.286,2.553c0.107,1.522,0.177,3.042,0.206,4.56c-0.012,0.133-0.012,0.27,0,0.412  c0.219,6.636-0.164,14.532-1.148,23.688c-0.068,0.647,0.103,1.224,0.514,1.733c0.407,0.51,0.934,0.801,1.577,0.873  c0.646,0.07,1.223-0.102,1.732-0.515c0.511-0.406,0.801-0.933,0.872-1.576c0.976-9.063,1.383-16.932,1.218-23.603  c0.068-0.07,0.142-0.139,0.225-0.205H64.98c0.663-0.546,1.422-0.736,2.279-0.566l0.018,0.017c0.957,0.204,1.756,0.751,2.399,1.645  c0.69,0.973,0.987,2.052,0.893,3.241l0.016-0.018C69.84,30.932,68.486,39.376,66.523,47.676z"></path></svg>