<?xml version="1.0" encoding="UTF-8" standalone="no"?>
<svg
   xmlns:dc="http://purl.org/dc/elements/1.1/"
   xmlns:cc="http://creativecommons.org/ns#"
   xmlns:rdf="http://www.w3.org/1999/02/22-rdf-syntax-ns#"
   xmlns:svg="http://www.w3.org/2000/svg"
   xmlns="http://www.w3.org/2000/svg"
   xmlns:sodipodi="http://sodipodi.sourceforge.net/DTD/sodipodi-0.dtd"
   xmlns:inkscape="http://www.inkscape.org/namespaces/inkscape"
   version="1.1"
   x="0px"
   y="0px"
   viewBox="0 0 100 100"
   style="enable-background:new 0 0 100 100;"
   xml:space="preserve"
   id="svg2"
   inkscape:version="0.91 r13725"
   sodipodi:docname="no.svg"><metadata
     id="metadata12"><rdf:RDF><cc:Work
         rdf:about=""><dc:format>image/svg+xml</dc:format><dc:type
           rdf:resource="http://purl.org/dc/dcmitype/StillImage" /></cc:Work></rdf:RDF></metadata><defs
     id="defs10" /><sodipodi:namedview
     pagecolor="#ffffff"
     bordercolor="#666666"
     borderopacity="1"
     objecttolerance="10"
     gridtolerance="10"
     guidetolerance="10"
     inkscape:pageopacity="0"
     inkscape:pageshadow="2"
     inkscape:window-width="786"
     inkscape:window-height="480"
     id="namedview8"
     showgrid="false"
     inkscape:zoom="2.36"
     inkscape:cx="50"
     inkscape:cy="35.603767"
     inkscape:window-x="0"
     inkscape:window-y="0"
     inkscape:window-maximized="0"
     inkscape:current-layer="svg2" /><style
     type="text/css"
     id="style4">
	.st0{fill:#1D1D1B;}
</style><path
     class="st0"
     d="m 34.454449,31.161059 0,-2.981991 -2.981991,0 -2.981992,0 -2.981991,0 0,2.981991 0,2.981992 0,2.981992 0,2.981991 0,2.981992 0,2.981991 0,2.98199 0,2.981989 0,2.982 0,2.981989 2.981991,0 2.981992,0 2.981991,0 0,-2.981989 -2.981991,0 -2.981992,0 0,-2.982 0,-2.981989 0,-2.98199 0,-2.981991 0,-2.981992 0,-2.981991 0,-2.981992 0,-2.981992 2.981992,0 2.981991,0 z m 5.963984,-2.981991 -2.981991,0 -2.981993,0 0,-2.981992 2.981993,0 2.981991,0 2.981991,0 0,2.981992 -2.981991,0 z m 17.891949,-2.981992 -2.981991,0 -2.981993,0 -2.981991,0 -2.981991,0 -2.981992,0 0,-2.981991 2.981992,0 2.981991,0 2.981991,0 2.981993,0 2.981991,0 2.981991,0 2.981992,0 0,2.981991 -2.981992,0 -2.981991,0 z m 5.963983,0 2.981991,0 0,2.981992 -2.981991,0 0,-2.981992 z m 0,8.945975 0,-2.981992 2.981991,0 0,-2.981991 2.981992,0 0,2.981991 0,2.981992 -2.981992,0 -2.981991,0 z m 0,8.945975 0,-2.981992 2.981991,0 2.981992,0 0,2.981992 -2.981992,0 -2.981991,0 z m 5.963983,-8.945975 2.981991,0 0,2.981992 0,2.981991 -2.981991,0 0,-2.981991 0,-2.981992 z m -5.963983,17.891945 0,-2.981989 2.981991,0 2.981992,0 0,2.981989 -2.981992,0 -2.981991,0 z m 5.963983,-8.94597 2.981991,0 0,2.981991 0,2.98199 -2.981991,0 0,-2.98199 0,-2.981991 z m -11.927966,26.837925 0,-2.981989 0,-2.981999 -2.981991,0 0,-2.981989 2.981991,0 0,-2.981989 2.981991,0 2.981992,0 2.981991,0 2.981992,0 0,2.981989 -2.981992,0 -2.981991,0 -2.981992,0 0,2.981989 0,2.981999 0,2.981989 0,2.98199 0,2.981989 -2.981991,0 0,-2.981989 0,-2.98199 z m 0,5.963979 0,2.981999 -2.981991,0 0,-2.981999 2.981991,0 z m -5.963984,-5.963979 0,2.98199 0,2.981989 0,2.981999 2.981993,0 0,2.981989 -2.981993,0 -2.981991,0 0,-2.981989 0,-2.981999 0,-2.981989 0,-2.98199 0,-2.981989 2.981991,0 0,2.981989 z m -2.981991,-2.981989 -2.981991,0 0,-2.981999 2.981991,0 0,2.981999 z m -2.981991,-5.963988 0,2.981989 -2.981992,0 -2.981991,0 0,-2.981989 2.981991,0 2.981992,0 z m -5.963983,-2.981989 0,2.981989 -2.981991,0 -2.981993,0 0,-2.981989 2.981993,0 2.981991,0 z m 29.819915,0 0,-2.981989 0,-2.982 2.981991,0 0,2.982 0,2.981989 -2.981991,0 z"
     id="path6"
     inkscape:connector-curvature="0"
     style="fill:#1d1d1b" /></svg>