<svg xmlns="http://www.w3.org/2000/svg" xmlns:xlink="http://www.w3.org/1999/xlink" version="1.1" x="0px" y="0px" viewBox="0 0 100 100" style="enable-background:new 0 0 100 100;" xml:space="preserve"><style type="text/css">
	.st0{fill:#1D1D1B;}
</style><path class="st0" d="M41.25,25.16h-2.5v-2.5h2.5h2.5h2.5v2.5v2.5v2.5v2.5v2.5v2.5v2.5v2.5v2.5v2.5h-2.5v-2.5v-2.5v-2.5v-2.5v-2.5  v-2.5v-2.5v-2.5v-2.5H41.25z M51.25,22.66v-2.5h-2.5h-2.5v2.5h2.5H51.25z M51.25,27.66v2.5v2.5v2.5v2.5v2.5v2.5v2.5v2.5h2.5v-2.5  v-2.5v-2.5v-2.5v-2.5v-2.5v-2.5v-2.5h2.5h2.5v-2.5h-2.5h-2.5v-2.5h-2.5v2.5V27.66z M58.75,32.66v2.5v2.5v2.5v2.5v2.5v2.5h2.5v-2.5  v-2.5v-2.5v-2.5v-2.5v-2.5h2.5h2.5v-2.5h-2.5h-2.5v-2.5h-2.5v2.5V32.66z M66.25,32.66v2.5v2.5v2.5v2.5v2.5v2.5v2.5v2.5v2.5v2.5v2.5  v2.5v2.5h2.5v-2.5v-2.5v-2.5v-2.5v-2.5v-2.5v-2.5v-2.5v-2.5v-2.5v-2.5v-2.5v-2.5H66.25z M63.75,67.66v2.5v2.5h2.5v-2.5v-2.5v-2.5  h-2.5V67.66z M61.25,75.16h-2.5h-2.5h-2.5h-2.5h-2.5h-2.5h-2.5h-2.5v-2.5h-2.5v2.5v2.5h2.5h2.5h2.5h2.5h2.5h2.5h2.5h2.5h2.5h2.5  v-2.5v-2.5h-2.5V75.16z M33.75,57.66v-2.5v-2.5v-2.5h-2.5v2.5v2.5v2.5v2.5v2.5h2.5v-2.5V57.66z M36.25,62.66h-2.5v2.5v2.5h2.5v-2.5  V62.66z M38.75,67.66h-2.5v2.5v2.5h2.5v-2.5V67.66z M36.25,52.66v2.5v2.5h2.5v-2.5v-2.5v-2.5v-2.5v-2.5v-2.5v-2.5v-2.5v-2.5v-2.5  v-2.5v-2.5v-2.5h-2.5v2.5v2.5v2.5v2.5v2.5v2.5v2.5v2.5v2.5h-2.5v2.5h2.5V52.66z"></path></svg>