<svg xmlns="http://www.w3.org/2000/svg" xmlns:xlink="http://www.w3.org/1999/xlink" version="1.1" x="0px" y="0px" viewBox="0 0 100 100" style="enable-background:new 0 0 100 100;" xml:space="preserve"><style type="text/css">
	.st0{fill:#1D1D1B;}
</style><path class="st0" d="M57.5,55.16H60v2.5h-2.5H55v-2.5H57.5z M67.5,47.66v2.5v2.5v2.5H65h-2.5v2.5H65h2.5v2.5v2.5v2.5H70v-2.5v-2.5  v-2.5v-2.5v-2.5v-2.5v-2.5H67.5z M65,67.66v2.5v2.5h2.5v-2.5v-2.5v-2.5H65V67.66z M62.5,75.16H60h-2.5H55h-2.5H50h-2.5H45h-2.5v-2.5  H40v2.5v2.5h2.5H45h2.5H50h2.5H55h2.5H60h2.5H65v-2.5v-2.5h-2.5V75.16z M60,47.66v2.5v2.5v2.5h2.5v-2.5v-2.5v-2.5v-2.5H65v-2.5h-2.5  H60v2.5V47.66z M67.5,47.66v-2.5H65v2.5H67.5z M47.5,55.16v2.5v2.5H50v-2.5h2.5v-2.5H50H47.5z M42.5,60.16v2.5H45h2.5v-2.5H45H42.5z   M40,57.66v2.5h2.5v-2.5H40z M37.5,50.16H40v-2.5v-2.5v-2.5v-2.5v-2.5v-2.5v-2.5v-2.5v-2.5v-2.5h-2.5v2.5v2.5v2.5v2.5v2.5v2.5v2.5  v2.5v2.5H35h-2.5v2.5H35H37.5z M32.5,55.16v-2.5v-2.5H30v2.5v2.5v2.5v2.5h2.5v-2.5V55.16z M35,60.16h-2.5v2.5v2.5H35v-2.5V60.16z   M35,65.16v2.5h2.5v-2.5H35z M40,67.66h-2.5v2.5v2.5H40v-2.5V67.66z M45,25.16v2.5v2.5v2.5v2.5v2.5v2.5v2.5v2.5v2.5v2.5h-2.5H40v2.5  h2.5H45v2.5h2.5v-2.5v-2.5v-2.5v-2.5v-2.5v-2.5v-2.5v-2.5v-2.5v-2.5v-2.5v-2.5v-2.5H45h-2.5H40v2.5h2.5H45z M52.5,22.66v-2.5H50  h-2.5v2.5H50H52.5z M52.5,27.66v2.5v2.5v2.5v2.5v2.5v2.5v2.5v2.5v2.5v2.5v2.5H55v-2.5v-2.5v-2.5v-2.5v-2.5h2.5H60v-2.5h-2.5H55v-2.5  v-2.5v-2.5v-2.5v-2.5v-2.5v-2.5h-2.5v2.5V27.66z"></path></svg>