<svg xmlns="http://www.w3.org/2000/svg" xmlns:xlink="http://www.w3.org/1999/xlink" version="1.1" x="0px" y="0px" viewBox="0 0 100 100" style="enable-background:new 0 0 100 100;" xml:space="preserve"><style type="text/css">
	.st0{fill:#1D1D1B;}
</style><path class="st0" d="M37.5,66.41v2.5H35h-2.5H30v-2.5v-2.5v-2.5v-2.5v-2.5v-2.5v-2.5v-2.5v-2.5v-2.5h2.5H35h2.5v2.5H35h-2.5v2.5v2.5  v2.5v2.5v2.5v2.5v2.5v2.5H35H37.5z M42.5,68.91H40h-2.5v2.5H40h2.5H45v-2.5H42.5z M57.5,71.41H55h-2.5H50h-2.5H45v2.5h2.5H50h2.5H55  h2.5H60h2.5v-2.5H60H57.5z M62.5,71.41H65v-2.5h-2.5V71.41z M62.5,63.91v2.5H65v2.5h2.5v-2.5v-2.5H65H62.5z M62.5,56.41v2.5H65h2.5  v-2.5H65H62.5z M67.5,63.91H70v-2.5v-2.5h-2.5v2.5V63.91z M62.5,48.91v2.5H65h2.5v-2.5H65H62.5z M67.5,56.41H70v-2.5v-2.5h-2.5v2.5  V56.41z M57.5,33.91v2.5v2.5H55v2.5h2.5v2.5H60h2.5H65h2.5v-2.5H65h-2.5H60v-2.5v-2.5v-2.5v-2.5v-2.5h-2.5v2.5V33.91z M57.5,28.91  v-2.5H55v2.5H57.5z M52.5,33.91v-2.5v-2.5v-2.5H55v-2.5h-2.5H50v2.5v2.5v2.5v2.5v2.5h2.5V33.91z M50,36.41h-2.5v2.5H50V36.41z   M47.5,41.41v-2.5H45h-2.5v2.5H45H47.5z M42.5,43.91v-2.5H40h-2.5v2.5H40H42.5z M67.5,43.91v2.5v2.5H70v-2.5v-2.5H67.5z"></path></svg>