<svg xmlns="http://www.w3.org/2000/svg" xmlns:xlink="http://www.w3.org/1999/xlink" version="1.1" x="0px" y="0px" viewBox="0 0 100 100" enable-background="new 0 0 100 100" xml:space="preserve"><title>Hand_02</title><path fill="#000000" d="M71.685,36.115c-0.021-3.43-2.819-6.193-6.248-6.171c-1.446,0.009-2.844,0.522-3.952,1.451  c-1.634-2.876-5.238-3.963-8.19-2.47l1.32-15.41c0.148-1.639-0.371-3.269-1.44-4.52c-2.211-2.621-6.129-2.954-8.751-0.742  c-1.246,1.051-2.028,2.55-2.179,4.172l-1,11.34l-0.54-6.21c-0.332-3.376-3.32-5.856-6.7-5.56c-1.637,0.139-3.152,0.923-4.21,2.18  c-1.063,1.25-1.578,2.876-1.43,4.51l2.28,26c-0.896,1.847-1.349,3.877-1.32,5.93v4.23c-0.026,5.982,3.288,11.479,8.59,14.25v7.07  h-1.23c-1.846,0.006-3.34,1.504-3.34,3.35v10.3c0,1.846,1.494,3.344,3.34,3.35h29.58c1.846-0.006,3.34-1.504,3.34-3.35v-10.29  c0-1.846-1.494-3.344-3.34-3.35h-1.26v-7.53c4.136-2.809,6.618-7.48,6.63-12.48v-11.58l0,0v-8.47H71.685z M62.295,35.865  c0.14-1.762,1.681-3.077,3.443-2.937c1.663,0.132,2.946,1.519,2.947,3.187v8.46c0.047,1.767-1.348,3.238-3.115,3.285  c-1.767,0.047-3.238-1.348-3.285-3.115c0-0.06,0.01-8.87,0.01-8.87V35.865z M56.085,31.265c1.762-0.011,3.199,1.408,3.21,3.17  c0,0,0,0,0,0c0,0,0,10.31,0,10.33c-0.099,1.765-1.61,3.114-3.375,3.015c-1.102-0.062-2.094-0.688-2.625-1.655  c0.808-1.35,1.252-2.887,1.29-4.46c0.005-0.08,0.005-0.16,0-0.24v-1.17c-0.005-0.826-0.674-1.495-1.5-1.5h-0.21v-4.32  C52.886,32.673,54.323,31.254,56.085,31.265C56.085,31.265,56.085,31.265,56.085,31.265z M45.235,12.705  c0.195-1.762,1.781-3.033,3.543-2.838c0.821,0.091,1.576,0.495,2.107,1.128c0.55,0.642,0.817,1.478,0.74,2.32l-2.16,25.44h-6.46  L45.235,12.705z M32.075,16.095c0.553-0.64,1.337-1.035,2.18-1.1c0.846-0.072,1.686,0.19,2.34,0.73  c0.651,0.535,1.058,1.31,1.13,2.15l1.83,20.93c-2.288,0.111-4.475,0.976-6.22,2.46l-2-22.83  C31.253,17.587,31.52,16.742,32.075,16.095z M66.605,79.525v10.3c0.006,0.188-0.142,0.344-0.33,0.35c-0.003,0-0.007,0-0.01,0h-29.58  c-0.188,0-0.34-0.152-0.34-0.34c0-0.003,0-0.007,0-0.01v-10.3c0-0.189,0.151-0.345,0.34-0.35h29.58  C66.454,79.18,66.605,79.336,66.605,79.525z M62.005,76.175h-21.11v-5.85l0,0c0.27,0.08,0.53,0.15,0.8,0.21h0.05h0.1l0,0  c1.519,0.506,3.109,0.763,4.71,0.76h9.83c1.923,0.003,3.83-0.356,5.62-1.06V76.175z M56.345,68.335h-9.78  c-1.281,0.002-2.553-0.201-3.77-0.6c-0.09-0.04-0.184-0.071-0.28-0.09c-1.564-0.495-3.075-1.145-4.51-1.94l0,0  c-3.587-2.44-5.727-6.502-5.71-10.84v-4.23c0-4.3,2.69-8.88,7.67-8.88h11.64c-0.164,3.344-2.912,5.978-6.26,6h-3.16  c-0.828,0-1.5,0.672-1.5,1.5v3.62c0,0.828,0.672,1.5,1.5,1.5c3.659,0,6.629,2.961,6.64,6.62c0,0.828,0.672,1.5,1.5,1.5  s1.5-0.672,1.5-1.5c-0.005-4.742-3.456-8.778-8.14-9.52v-0.76h1.66c2.201,0.001,4.33-0.787,6-2.22  c2.174,2.638,6.076,3.014,8.714,0.839c0.269-0.222,0.519-0.466,0.746-0.729c1.977,2.287,5.314,2.815,7.9,1.25v6.32  c-0.044,6.756-5.554,12.199-12.31,12.16H56.345z"></path></svg>