<svg xmlns="http://www.w3.org/2000/svg" data-name="Warstwa 1" viewBox="0 0 100 100" x="0px" y="0px"><title>hand_money</title><path d="M63.63,78H63V73.17L57.83,68h-10l-8.32-8.32-4.35-1.42L24,60H6V80H23.17l14,14H62.41L86,83.32V76.56l-7-5ZM82,80.68,61.59,90H38.83l-14-14H10V64H24.13l10.7-1.64,2.53.83L46.17,72h10L59,74.83V78H44.83l-5.41-5.41-2.83,2.83L43.17,82H64.37l14-5.93L82,78.63Z"></path><path d="M80,14V6H20V40h8v8H88V14ZM24,10H76V36H24ZM84,44H32V40H80V18h4Z"></path><rect x="28" y="14" width="4" height="18"></rect><rect x="68" y="14" width="4" height="18"></rect><path d="M50,13A10,10,0,1,0,60,23,10,10,0,0,0,50,13Zm0,16a6,6,0,1,1,6-6A6,6,0,0,1,50,29Z"></path></svg>