<svg xmlns="http://www.w3.org/2000/svg" data-name="Warstwa 1" viewBox="0 0 100 100" x="0px" y="0px"><title>hand_shield check</title><path d="M63.63,78H63V73.17L57.83,68h-10l-8.32-8.32-4.35-1.42L24,60H6V80H23.17l14,14H62.41L86,83.32V76.56l-7-5ZM82,80.68,61.59,90H38.83l-14-14H10V64H24.13l10.7-1.64,2.53.83L46.17,72h10L59,74.83V78H44.83l-5.41-5.41-2.83,2.83L43.17,82H64.37l14-5.93L82,78.63Z"></path><path d="M49.17,10,44,15.17V45L62.8,60h6.4L88,45V15.17L82.83,10ZM84,43,67.8,56H64.2L48,43V16.83L50.83,14H81.17L84,16.83Z"></path><polygon points="64 37.17 57.41 30.59 54.59 33.41 64 42.83 79.41 27.41 76.59 24.59 64 37.17"></polygon></svg>