<svg xmlns="http://www.w3.org/2000/svg" viewBox="0 0 100 100" x="0px" y="0px"><title>Artboard 130</title><g data-name="Layer 1"><path d="M92,31.37c4.85-1.1,4.51-8.18,1.65-10.56-4-3.37-11-2.27-11.73,4.37a.62.62,0,0,0,0,.09c-1.84.32-6.29.55-9.15.76a30.15,30.15,0,0,0-1.34-9.33C71,14.86,68.14,15,68.2,16.5c.07,1.74-8.7.69-11.63,1.89-12.19-8.3-33.48-6.67-43.26.08-2.92,2-3.5,8.58-.51,8.77a.27.27,0,0,1,.1,0C8.15,27.17,8.23,37,10.5,37c-3.12-.11-3.68,9.94.74,9.89-4.74.27-3.64,13.86,3.43,11,5.88-2.39,16.68-1.44,16.69,1.78.22,11.59,3.47,25.69,7.62,22.2,6.3-5.3,5.38-9.78,5-13.53-.62-6.73,1-10.47,3.79-12.45,4.9-3.2,14.18-8.3,18-8.37a1.41,1.41,0,0,0,1.74.38c2.75-1.87,4.24-6.95,4.66-11.18,1.88-.09,8.28-.56,9.65-.64-.88,6.64,6.35,8.05,9.37,6.48C95.06,40.53,95.38,33.56,92,31.37ZM67,44.22h0c-3.41.77-4.35,1.94-7.1,3.28C57,48.67,57.92,45.12,58,43.86c.06-2.13-2.46-2-2.18.38.8,6.58-6,6.36-9.87,9.74-2,1.76-3.81,1.94-3.89,10.65,0,4.52,1.93,10.82-4,15.13-2.23,1.61-6.07-18.72-4.48-23,.17-2.09-12.64-4-20.5-.26-3,.61-5.27-7.66-.5-8.17,1.31-.14,1.38-2.82-.48-2.82-3.09.33-3.42-7.29.11-7.18C14,38.39,13.9,36,12.83,36c-2.7-.21-3.36-7.17,2-7.32,1.84-.05,1.29-3.26,0-3.18-2.91.18-2.87-3.84-.83-5.33,11.5-7.33,32.93-6.41,39.18-.83a6.08,6.08,0,0,1,1.41,5.31c-.52,1.83,1.87,2.49,2.16.46.26-1.81.6-4.51,3.19-5.25,2.25-.22,6.56-.4,8.84-.65.87,3.76.39,7,.43,10.17C69.22,31.78,69.3,41.43,67,44.22Zm24-4.39c-2.54,2.85-9.49.12-6.44-5.66.07-.41-9.84,1-10.08,1-.63-2.17,2.06-3.74,1.12-7-.07-.22,9.65-.37,9.55-1.29-.58-5.2,3.48-6.56,6.64-4.46,1.88,1.25,1.63,4,.88,5.21-1.43,2.28-4.54,2.44-5,2.53-2,.39-1.1,3.4.84,3C91.52,32.46,93.17,37.34,91,39.83Z"></path></g></svg>