<svg xmlns="http://www.w3.org/2000/svg" viewBox="0 0 100 100" x="0px" y="0px"><title>Artboard 60</title><g data-name="Layer 1"><path d="M89.38,37.59c1.61-3.09-1.6-8.17-5.34-8-2.93.11-7.75,4.25-4.26,8.85-1,.49-5.45,2.61-7.19,3.48-.32-.41-4.5-6.67-9.64-4-6.8,3.56-11.43,3-22.08,6.6-6.27,2.14-10,7.36-15.45,11-7.16,4.77-15.86,9-18.64,11s-.05,5.77,1.29,5.25c-5.41,2.58-1.23,7.65.12,7.4-4.35,2.72-.85,7.62,3,5.78-1.6,1.65-.65,7.83,5.52,5.52s13.35-5.27,20.21-8.36c.71-.32,3.5-1.68,4.31-2.1-1.62,1.36-3.54,3.54-3.42,5,.21,2.51,4.3,4.49,8.13,3.07,6-2.24,12-7,13.62-12.44.76-2.08,3.62-3.66,4.62-5.08,1.18-1.67,1.41-3.53,2.14-5.37,1-2.65,11.49-7.84,11.5-7.91,2.78-2.42-1-7.29-.89-7.33,2.21-1,5.9-2.9,7.48-3.47l0,.07c3.39,4.65,9,2.52,10.64-1.73C96.23,41.79,93.47,36.35,89.38,37.59Zm-30.72,35c-2.16,5.3-6,10-13.39,13.25-3.67,1.81-5.92-1.05-4.81-2.21,1.56-1.62,4-4.31,6.06-5.65,2.39-1.53,4-4.49,3.19-6.81s-1.87-5.6,3.31-9.58c1.69-1.3.41-3.17-1.38-2C46.52,63,46.9,69.18,47.41,70.91c1.27,5.07-9.08,8-11.7,9.36-4.21,2.16-16.23,7.25-20,8.83-3.19,1.34-5-2.62-2.46-3.93C16,83.41,26.15,79.34,30,77.56c1.54-.7.83-2.58-.39-2-2,1-18,7.93-19.3,8.48-2,.88-3.77-2.12-2-3.65.43-.37,15.88-7.7,19.57-9.31,1.35-.59.58-2.55-1.11-1.78,0,0-16.52,7.53-17.73,8-1.91.73-3.5-2.87-1.18-4,7.48-3.71,8.49-4.13,14.32-6.64,1.37-.59,1.13-2.29-.78-1.34-2.66,1.32-9.58,4.47-12.05,5.32-1.78.78-3.43-2.25-1.33-3.47,5.29-3.06,14.26-7.29,19.06-10.3C32.58,52,37.28,47.43,43.53,45.24c4.31-1.51,8.22-1.87,12.61-2.77.62-.13,5.54-2.15,7.48-2.51C67.11,39.3,78.09,54.19,76,55.83c-2.13,1.46-6.72,5.41-11,1.92-1.07-.88-2-.4-1.63.77s1.66,6.06.31,8.76C62,70.71,60.11,69.06,58.66,72.63ZM93,44.4c-1.47,2.92-5.09,3.64-6.87-.51-.31-.73-7.65,3.3-7.7,3.1-.68-2.84-3.36-2.87-3.82-4.76.19-.08,8.19-3.28,8-3.56-4.74-3-.71-8,2.41-7,2.71.92,3.55,5.28,1,6.08-1.63.51-1,3.12.64,2.59.39-.13,2.78-1.34,4.82-.24C92.53,40.71,93.89,42.67,93,44.4Z"></path><path d="M35.52,37.73a8,8,0,0,0-1.16-2.47C32,33,16.8,35.94,16.83,40.37c-.22.27,1.45,3.93,2.41,5.35s7.06.08,8.75-.29a22.18,22.18,0,0,0,7.51-3.08C37.14,41.12,36.13,39.3,35.52,37.73Zm-8.09,2c-1,.22-7.15,2.4-7.94.49-.71-1.71,5-3,5.74-3.26,4.14-1.34,6.34-1.15,7.1,0C33.14,38.4,28.27,39.56,27.43,39.74Z"></path><path d="M47.27,23.9a8,8,0,0,0-1.16-2.47c-2.4-2.23-17.57.67-17.54,5.11-.22.27,1.45,3.93,2.41,5.35s7.06.08,8.75-.29a22.17,22.17,0,0,0,7.51-3.08C48.89,27.28,47.88,25.47,47.27,23.9Zm-8.09,2c-1,.22-7.15,2.4-7.94.49-.71-1.71,5-3,5.74-3.26,4.14-1.34,6.34-1.15,7.1,0C44.88,24.56,40,25.73,39.18,25.91Z"></path></g></svg>