<svg xmlns="http://www.w3.org/2000/svg" viewBox="0 0 100 100" x="0px" y="0px"><title>Artboard 70</title><g data-name="Layer 1"><path d="M71.61,25.66c-2-2.52-5.78-6.14-9.75-5.64,0-1.87-.39-6-.42-6.19A4.32,4.32,0,0,0,58.32,9.7c-2-.65-4.7-.46-6,1.17a5.43,5.43,0,0,0-.39.62c-.24-5-9-3.52-9-.19-2.25-.85-4.62.87-5.68,2.73a12.19,12.19,0,0,0-.82,1.82c-2.26-1.17-5,0-6.47,2.19-2.08,3.12-1.68,7.87-1.57,11.38,0,.44-.63,9.87.91,13.33,2.6,5.83,3.25,8.07,3.37,9.65.13,1.83.75,10.15,1.24,16.4-.58.22-.42,1.81.48,2.37a24.66,24.66,0,0,0,7.27,3c-.21.09-.42,6.81-.63,8.47H41c-5.62.92-6.27,6.88-3.23,10.18,2.15,2.34,8.2,2.33,8.93-1.85,2,2.8,7.94,2.23,9.48-1.14,1.21-2.64-.3-8.75-5.92-7.72,0-1,.11-5.12.13-7.31.63,0,11.53-.25,11.71-5.66.28-3.6.37-10.13.47-10.82C62.09,51.27,80.7,37.4,71.61,25.66ZM53.16,13.48c-.11-3.91,5.16-3.77,6,.19.29,4.7.19,7.2.3,7.39-2.79,1.21-4.32,7.94-6,9.15C53.59,28.31,53.1,17.28,53.16,13.48Zm-8.65.17c0-5.39,6.19-3.47,6.24-.31-.1,1.35-.1,18.62-.1,18.62C51,34.48,45.47,35.4,45,33.22,44.52,30.66,44.51,14.8,44.51,13.65Zm-5.67,1c1.45-2.89,4-2.24,4-.71.05,3.48.3,16.06.39,17.22a2.89,2.89,0,1,1-5.75,0C37.22,30.3,37.42,17.43,38.83,14.61Zm-8,5.7c.66-2.58,4.12-3.85,4.46-2.51,0,0,0,9.29,0,13.63-.08,2.4-3.83,1.94-4.17.58A42.29,42.29,0,0,1,30.84,20.31Zm23,69.41c-2,2-6.25.78-5.81-1.85.28-1.67-2.32-2.27-2.57-.59-.06.4-.06,3.05-1.95,4.37-1,.69-3.34,1-4.48-.53-1.93-2.61-.94-6.13,3.52-5.85.79,0,.5-8.24.7-8.19,2.82.67,4-1.69,5.92-1.25,0,.2-.76,8.71-.41,8.63C53.54,81.63,56.15,87.44,53.83,89.72ZM62.55,50c-.57-1-.92-1.94-1.41-2.92-.83-1.66-4.26-.54-3.17.94,4.13,5.6,2.21,17.23,2.36,19.61,0,4.59-9.7,4.28-11.83,4.26-4.3,0-11.93-.93-12.2-3.11s-1-11.23-1-11.29c-.57-4.34,1.48-6.68,4-8.94,1.5-1.33-1-3.18-2.48-1.85a8.59,8.59,0,0,0-1,1.06,15.79,15.79,0,0,1-4.62-6A35,35,0,0,1,30,33.37c.93,2.71,6.36,2,6.63,0,.5,4.16,7.1,4.63,7.56.59.47,3.49,6.48,2.64,6.79.33a1.08,1.08,0,0,0,0,.15,1.3,1.3,0,0,0,.51.78,7.15,7.15,0,0,0,3.43,1.47,7.15,7.15,0,0,0-1.73,1.66,9.17,9.17,0,0,0-1,7.17c.56,1.75,2.63.8,2.08-.94a7.14,7.14,0,0,1,.74-5.25c1.6-2.48,3.87-1.59,5.7-1.89a1.51,1.51,0,0,0,1-2.59,9.54,9.54,0,0,0,4.35-4.1c.73-1.7-2.23-3-3-1.25s-2.77,2.77-4.6,3.6c-1.41.64-2.57,1-3.8.58-1.16-1.37,2.38-3.58,3.47-5.4.69-1.14,1.77-4.54,3.19-5.18,4-1.81,9.1,4.29,9.8,8.77C72.35,38.89,62.67,50.15,62.55,50Z"></path></g></svg>