<svg xmlns="http://www.w3.org/2000/svg" viewBox="0 0 100 100" x="0px" y="0px"><title>Artboard 110</title><g data-name="Layer 1"><path d="M64.31,29.12c-2.72-1.53,2.52-17.71,2.53-20.79,0-3.74-5.56-3.88-7.27-1.36-2.35,3.47-8.57,19.12-9,20.4-1.57-4.48-2.82-6.7-4.37-11C45.07,13.25,43,5.17,38.84,6.58c-5.83,2-3.1,13.65.29,22.71-3.21-2.63-8.52,1.84-7.56,4.92-1.14-2.49-6.79.13-6.5,3.65.36,4.29,2.2,18.59,8.58,25,1.11,1.12.17,6.34-.48,11.8-.18,1.55,5.71,3.24,8.34,3.69,0,2.2.05,5.57-.09,7h-.07c-5,.93-5.49,6.29-2.7,9.2,2,2.06,7.4,1.94,8-1.83,1.86,2.47,7.16,1.85,8.48-1.2,1-2.39-.43-7.84-5.46-6.81,0-.79,0-3.75,0-5.79,2.76-.05,5.56-.46,7.61-1.73A1.38,1.38,0,0,0,57.49,75V63.48C64.23,58.12,76.31,35.87,64.31,29.12ZM39,31.43a30.32,30.32,0,0,1,2.15,6.91c.38,2.32-1.61,4-3.1,2.83a11.7,11.7,0,0,1-3.74-5.88C33.06,31.31,36.46,28.92,39,31.43Zm-8.64,3.69a10,10,0,0,1,3.58,7.51c0,1.61-1.42,3.4-4.26.76-1.24-1.15-3.12-4-3.3-5.35C26,35.9,29.39,34.54,30.32,35.12ZM53,91.49c-1.78,1.82-5.59.82-5.25-1.55.22-1.5-2.12-2-2.32-.48,0,.36,0,2.74-1.66,4-.88.64-3,1-4-.39-1.78-2.3-1-5.48,3-5.31.71,0,.3-7.4.47-7.36,2.54.55,3.59-1.59,5.29-1.23,0,.18-.52,7.83-.21,7.75C52.63,84.23,55.09,89.39,53,91.49Zm2.78-28.9s-.48,12.51-.48,12.51c.4,2.78-20.32.42-20.26-2.15a25.08,25.08,0,0,1,1-7.81c.37-1.42,2.43-1.35,2.34-2.84a1.42,1.42,0,0,0-1.38-1.38S35,61,34.85,61c-3.18-1.5-6.29-13.38-6.37-16.06C32.71,48.23,36,43.77,36,43a5.64,5.64,0,0,0,3.13.44,5,5,0,0,0,4.15-3,4.45,4.45,0,0,0,.16-2.44c-.63-4.43-6.06-17.43-6-25.23,0-1,.58-4.65,2.68-4.29,1.75.3,3.82,8.09,4.54,9.85,1.75,4.26,3.3,8.12,4.82,12.73.55,1.66,2,2.33,2.44-.36s6.78-19.42,8.66-22.43c1.33-2.12,5.25-1.58,4.79.44-.35,1.55-4.61,17.14-3.7,21.06h0c-3.36,1.41-8.07,4.05-10.9,8.3-1.49,2.24.15,6.72,4.1,5.75-.71.12-.7,1.87-.21,1.86-1.58,0-6.81,0-8.12,4.2-.53,1.69,1.13,1.35,1.63.45,1.53-2.72,4.14-3.3,7.62-2.58,1.15.24,1.9-.56,1.51-1.37-1.47-.93-.17-4.67,3.11-5.34.82-.17.53-2.25-.39-1.8a32,32,0,0,0-4.18,2.4c-3.56,2.29-4.89-1.91-3.28-3.63,3.21-3.45,8.77-6.7,10.34-6.51,2.94.35,4.47,3.83,4.65,6.06C67.77,40.39,66.82,52.58,55.83,62.59Z"></path></g></svg>