<svg xmlns="http://www.w3.org/2000/svg" viewBox="0 0 100 100" x="0px" y="0px"><title>Artboard 140</title><g data-name="Layer 1"><path d="M91.19,67.56c3.39-2.19,3.07-9.16-.79-11.16-3-1.57-10.25-.16-9.37,6.48-1.38-.08-7.77-.55-9.65-.64C71,58,69.46,52.92,66.71,51.05a1.41,1.41,0,0,0-1.74.38,17,17,0,0,1-10.29-4c-2.38-1.7-6.39-4.59-6.49-4.63-5.3-4.52-5.62-8.42-5-15.16C43.55,23.86,44.45,15,39.33,15c-7.23,0-10,14.24-9.64,21.47-4.1-.56-16.53-2.24-18.77-.15-3.19,3-3.12,10.32-.26,13.14-3.66-.25-5.36,5-5,7.42.19,1.28.92,3.83,2.19,4.6a4.1,4.1,0,0,0-.53.84,8.31,8.31,0,0,0,.13,6.42c.81,1.68,2.61,2.51,4.67,2.9a.35.35,0,0,1-.1,0c-3.5.61-3.09,6.43-.1,7.72,8.52,3.67,37.24,7.1,43.87,3.14,2.93,1.21,11.7.16,11.63,1.89-.06,1.46,2.76,1.64,3.22-.21A44.63,44.63,0,0,0,72,72.9c2.86.21,7.31.44,9.15.76a.62.62,0,0,0,0,.09c.75,6.63,7.68,7.74,11.73,4.37C95.69,75.74,96,68.66,91.19,67.56ZM12.8,38.42c2.65-.19,8.19,2.43,10.48,3.76,1.52.88,2.28,5.7.37,6-.69.11-8.22-.44-9.83-.45C9.88,47.72,9.69,39.1,12.8,38.42ZM11.25,52.3c2.43.34,9.06.51,11,1.14a3,3,0,0,1,1.76,4.38C23.15,59.67,21,60,18.67,60a86.72,86.72,0,0,1-9.3-.76C7.1,58.83,7.36,51.78,11.25,52.3Zm-1,16.29C8.63,68,7.85,64.13,9.21,63.53c2.68-.52,11.11.26,12.37.76,2.44,1,1.64,4.5.43,4.91C19.88,69.92,12.68,69.4,10.27,68.59Zm2.3,9.18c-1.36-.41-1.25-4.35-.11-4.86A100.81,100.81,0,0,1,22.71,72c2-.12,2,4.56.28,4.94S14.57,78.37,12.57,77.77Zm55.4,4c-2.28-.25-6.59-.43-8.84-.65-2.59-.74-2.93-3.44-3.19-5.25-.29-2-2.68-1.37-2.16.46.73,3-2.11,4-2.25,4.2-5.52,2.89-24.66.58-30.3-1,7.49-1.12,5.51-9.9,1.55-9.3,3.27-.6,4-7.15-.55-7.75,4.21-1.5,4.1-3.56,4.37-6.62a5.56,5.56,0,0,0-2.2-4.37A3.19,3.19,0,0,0,26,50.62c2.77-2.85,1.15-7.5-1.27-9.57-.79-.68-3.21-2-4.25-2.68.34,0,8.13.52,10.16,1.12-4.74,8.53,2.07,19,8.46,19.17,1.8,0,1.73-2.14.35-2.19C33.23,56.21,29,45.4,32.69,40.18c-1.12-7.41,1-22.51,6-22.51s2.62,10.57,1.78,14.59C38.72,40.52,45.52,43.7,51.73,49c2.14,1.46,3.32,2.64,3.24,5.67-.06,2.36,2.24,2.51,2.18.38,0-1.26.21-1.69.13-2.36a18.86,18.86,0,0,0,8.85,2h0c2.34,2.79,2.27,12.44,2.24,14.85C68.36,72.77,68.84,78,68,81.73Zm23-5.21c-3.16,2.1-7.22.75-6.64-4.46.1-.92-9.61-1.06-9.55-1.29.94-3.26-1.74-4.83-1.12-7,.24,0,10.15,1.39,10.08,1-3-5.78,3.9-8.51,6.44-5.66,2.21,2.48.56,7.36-2.51,6.7-1.94-.42-2.79,2.58-.84,3,.47.09,3.57.24,5,2.53C92.58,72.51,92.83,75.27,90.95,76.52Z"></path></g></svg>