<svg xmlns="http://www.w3.org/2000/svg" xmlns:xlink="http://www.w3.org/1999/xlink" version="1.1" x="0px" y="0px" viewBox="0 0 100 100" enable-background="new 0 0 100 100" xml:space="preserve"><path fill="#000000" d="M46.237,83.929h-5.282c-0.149,0-0.293-0.057-0.403-0.159c-11.343-10.555-6.023-26.458-5.968-26.617  c0.106-0.308,0.443-0.471,0.752-0.366c0.308,0.107,0.473,0.443,0.366,0.752c-0.052,0.151-5.064,15.182,5.487,25.206h5.047  c0.326,0,0.591,0.265,0.591,0.592S46.563,83.929,46.237,83.929z"></path><path fill="#000000" d="M59.158,62.058c-0.327,0-0.591-0.265-0.591-0.592V32.814c0-0.327,0.265-0.592,0.591-0.592  s0.591,0.265,0.591,0.592v28.652C59.75,61.793,59.485,62.058,59.158,62.058z"></path><path fill="#000000" d="M59.158,95c-0.327,0-0.591-0.265-0.591-0.591V72.457c0-0.327,0.265-0.592,0.591-0.592  s0.591,0.265,0.591,0.592v21.952C59.75,94.735,59.485,95,59.158,95z"></path><path fill="#000000" d="M40.956,95c-0.327,0-0.591-0.265-0.591-0.591V83.337c0-0.327,0.265-0.592,0.591-0.592  s0.591,0.265,0.591,0.592v11.072C41.547,94.735,41.282,95,40.956,95z"></path><path fill="#000000" d="M43.927,86.333h-2.971c-0.327,0-0.591-0.265-0.591-0.591c0-0.327,0.265-0.592,0.591-0.592h2.971  c0.327,0,0.592,0.265,0.592,0.592C44.519,86.068,44.254,86.333,43.927,86.333z"></path><path fill="#000000" d="M56.939,82.86c-0.221,0-0.433-0.124-0.534-0.336c-0.141-0.295-0.016-0.648,0.279-0.789  c4.032-1.927,4.242-3.049,4.21-3.347c-0.067-0.625-1.314-1.127-1.873-1.26c-0.318-0.075-0.515-0.395-0.439-0.712  s0.395-0.513,0.712-0.438c0.266,0.063,2.603,0.665,2.775,2.285c0.153,1.434-1.397,2.876-4.876,4.54  C57.111,82.842,57.024,82.86,56.939,82.86z"></path><path fill="#000000" d="M56.939,87.278c-0.221,0-0.433-0.124-0.534-0.336c-0.141-0.295-0.016-0.648,0.279-0.789  c4.031-1.927,4.242-3.048,4.21-3.346c-0.066-0.627-1.291-1.121-1.874-1.261c-0.317-0.076-0.513-0.396-0.437-0.713  c0.076-0.317,0.394-0.514,0.711-0.437c0.266,0.062,2.603,0.664,2.775,2.285c0.153,1.434-1.397,2.876-4.876,4.54  C57.111,87.26,57.024,87.278,56.939,87.278z"></path><path fill="#000000" d="M56.939,91.917c-0.221,0-0.433-0.124-0.534-0.337c-0.141-0.294-0.016-0.647,0.279-0.789  c4.032-1.927,4.242-3.048,4.21-3.346c-0.067-0.626-1.314-1.127-1.873-1.26c-0.318-0.075-0.515-0.394-0.439-0.711  c0.076-0.318,0.395-0.514,0.712-0.439c0.266,0.063,2.603,0.664,2.775,2.285c0.153,1.433-1.397,2.875-4.876,4.539  C57.111,91.898,57.024,91.917,56.939,91.917z"></path><path fill="#000000" d="M47.151,30.314c-0.326,0-0.591-0.265-0.592-0.591c-0.002-1.981,1.607-3.596,3.589-3.599  c0.001,0,0.003,0,0.004,0c0.958,0,1.859,0.373,2.538,1.05c0.68,0.678,1.054,1.58,1.055,2.54c0,0.327-0.264,0.592-0.59,0.592  c0,0,0,0-0.001,0c-0.326,0-0.591-0.264-0.591-0.591c0-0.644-0.252-1.249-0.708-1.704c-0.455-0.454-1.06-0.704-1.702-0.704  c-0.001,0-0.001,0-0.003,0c-1.329,0.001-2.409,1.084-2.407,2.414C47.743,30.048,47.479,30.313,47.151,30.314L47.151,30.314z"></path><path fill="#000000" d="M53.155,33.413c-0.326,0-0.591-0.265-0.591-0.591c-0.003-1.981,1.607-3.596,3.589-3.599  c0.001,0,0.003,0,0.003,0c0.959,0,1.86,0.373,2.539,1.05c0.68,0.678,1.054,1.58,1.055,2.54c0,0.327-0.264,0.592-0.59,0.592h0  c-0.327,0-0.591-0.264-0.592-0.591c0-0.644-0.252-1.249-0.708-1.704c-0.455-0.454-1.06-0.704-1.703-0.704c0,0-0.001,0-0.002,0  c-1.33,0.001-2.409,1.084-2.408,2.414C53.747,33.147,53.482,33.412,53.155,33.413C53.156,33.413,53.155,33.413,53.155,33.413z"></path><path fill="#000000" d="M41.147,34.575c-0.326,0-0.591-0.265-0.591-0.591c-0.003-1.981,1.607-3.596,3.588-3.599  c0.001,0,0.003,0,0.004,0c0.958,0,1.859,0.373,2.538,1.05c0.68,0.678,1.055,1.58,1.056,2.54c0,0.327-0.264,0.592-0.591,0.592h0  c-0.327,0-0.591-0.265-0.592-0.591c0-0.644-0.252-1.249-0.708-1.704c-0.455-0.454-1.06-0.704-1.703-0.704c-0.001,0-0.001,0-0.002,0  c-1.329,0.001-2.409,1.084-2.407,2.414C41.74,34.309,41.475,34.574,41.147,34.575L41.147,34.575z"></path><path fill="#000000" d="M35.144,42.51c-0.326,0-0.591-0.265-0.591-0.591c-0.003-1.981,1.607-3.595,3.588-3.598  c0.001,0,0.003,0,0.004,0c0.958,0,1.859,0.373,2.538,1.049c0.68,0.678,1.055,1.58,1.056,2.54c0,0.327-0.264,0.592-0.591,0.592  c0,0,0,0,0,0c-0.327,0-0.591-0.265-0.592-0.591c0-0.644-0.252-1.25-0.708-1.704c-0.456-0.455-1.06-0.704-1.703-0.704  c-0.001,0-0.002,0-0.003,0c-1.329,0.001-2.409,1.084-2.407,2.414C35.736,42.244,35.471,42.51,35.144,42.51L35.144,42.51z"></path><path fill="#000000" d="M56.405,38.348C56.405,38.348,56.405,38.348,56.405,38.348l-3.132-0.006  c-0.327-0.001-0.591-0.266-0.59-0.593c0-0.326,0.265-0.59,0.591-0.59c0.001,0,0.001,0,0.001,0l3.13,0.006  c0.327,0,0.591,0.266,0.59,0.592C56.996,38.083,56.731,38.348,56.405,38.348z"></path><path fill="#000000" d="M55.664,40.18C55.663,40.18,55.663,40.18,55.664,40.18l-2.473-0.004c-0.327,0-0.591-0.266-0.59-0.593  c0-0.326,0.265-0.59,0.591-0.59c0,0,0.001,0,0.001,0l2.472,0.004c0.327,0.001,0.591,0.266,0.591,0.593  C56.255,39.915,55.99,40.18,55.664,40.18z"></path><path fill="#000000" d="M64.113,57.477c-0.082,0-0.164-0.017-0.242-0.052l-2.237-1.007c-0.298-0.134-0.431-0.484-0.297-0.782  c0.134-0.298,0.485-0.431,0.782-0.296l2.237,1.007c0.297,0.134,0.43,0.484,0.296,0.782C64.554,57.347,64.338,57.477,64.113,57.477z"></path><path fill="#000000" d="M60.332,62.689c-0.081,0-0.163-0.017-0.242-0.052l-1.401-0.631c-0.298-0.134-0.43-0.484-0.296-0.782  s0.484-0.431,0.782-0.297l1.401,0.63c0.298,0.134,0.431,0.484,0.296,0.782C60.773,62.56,60.558,62.689,60.332,62.689z"></path><path fill="#000000" d="M54.892,45.912c0,0-0.001,0-0.001,0l-1.565-0.003c-0.327-0.001-0.591-0.267-0.59-0.593  c0.001-0.326,0.266-0.59,0.591-0.59c0,0,0,0,0.001,0l1.565,0.003c0.326,0,0.59,0.266,0.59,0.592  C55.482,45.647,55.218,45.912,54.892,45.912z"></path><path fill="#000000" d="M54.892,47.686c0,0-0.001,0-0.001,0l-1.565-0.003c-0.327,0-0.591-0.267-0.59-0.593  c0.001-0.326,0.266-0.59,0.591-0.59c0,0,0,0,0.001,0l1.565,0.003c0.326,0,0.59,0.266,0.59,0.592  C55.482,47.422,55.218,47.686,54.892,47.686z"></path><path fill="#000000" d="M43.975,39.51c0,0-0.001,0-0.001,0l-2.356-0.006c-0.327-0.001-0.591-0.266-0.59-0.593  c0.001-0.326,0.266-0.59,0.592-0.59h0.001l2.356,0.005c0.326,0.001,0.59,0.267,0.589,0.593C44.565,39.246,44.3,39.51,43.975,39.51z"></path><path fill="#000000" d="M44.007,41.341C44.007,41.341,44.007,41.341,44.007,41.341l-2.474-0.004c-0.326,0-0.59-0.266-0.59-0.593  c0.001-0.326,0.266-0.59,0.592-0.59c0,0,0,0,0.001,0l2.473,0.004c0.326,0.001,0.591,0.266,0.59,0.593  C44.598,41.077,44.333,41.341,44.007,41.341z"></path><path fill="#000000" d="M42.46,47.074c0,0-0.001,0-0.002,0l-0.791-0.003c-0.327-0.002-0.59-0.268-0.589-0.594  c0.001-0.326,0.266-0.589,0.591-0.589c0.001,0,0.002,0,0.002,0l0.791,0.004c0.327,0.001,0.591,0.267,0.589,0.594  C43.051,46.811,42.786,47.074,42.46,47.074z"></path><path fill="#000000" d="M44.01,48.848C44.01,48.848,44.009,48.848,44.01,48.848l-2.341-0.004c-0.327,0-0.591-0.266-0.59-0.592  c0-0.326,0.265-0.59,0.591-0.59c0,0,0.001,0,0.001,0l2.34,0.003c0.327,0.001,0.591,0.266,0.59,0.593  C44.601,48.583,44.336,48.848,44.01,48.848z"></path><path fill="#000000" d="M37.758,47.074L37.758,47.074l-2.341-0.003c-0.326-0.001-0.591-0.266-0.59-0.593  c0-0.326,0.265-0.591,0.592-0.591c0,0,0,0,0,0l2.34,0.004c0.326,0,0.591,0.266,0.59,0.592C38.35,46.809,38.084,47.074,37.758,47.074  z"></path><path fill="#000000" d="M36.984,48.848L36.984,48.848l-1.566-0.004c-0.327,0-0.591-0.266-0.59-0.592  c0.001-0.327,0.266-0.59,0.592-0.59h0.001l1.565,0.003c0.326,0.001,0.591,0.267,0.59,0.593  C37.575,48.583,37.31,48.848,36.984,48.848z"></path><path fill="#000000" d="M48.851,36.024c-0.001,0-0.001,0-0.002,0l-1.194-0.006c-0.327-0.001-0.59-0.268-0.589-0.594  c0.001-0.326,0.266-0.589,0.592-0.589c0.001,0,0.001,0,0.002,0l1.194,0.005c0.327,0.002,0.59,0.268,0.589,0.594  C49.44,35.761,49.176,36.024,48.851,36.024z"></path><path fill="#000000" d="M49.271,37.855c0,0-0.001,0-0.001,0l-1.698-0.004c-0.327-0.001-0.591-0.267-0.59-0.593  c0.001-0.326,0.265-0.59,0.591-0.59c0,0,0.001,0,0.001,0l1.698,0.004c0.327,0.001,0.59,0.267,0.59,0.593  S49.598,37.855,49.271,37.855z"></path><path fill="#000000" d="M50.436,43.587L50.436,43.587l-2.728-0.003c-0.327,0-0.591-0.266-0.59-0.593  c0-0.326,0.265-0.591,0.591-0.591h0l2.728,0.003c0.327,0,0.591,0.266,0.59,0.592C51.027,43.323,50.762,43.587,50.436,43.587z"></path><path fill="#000000" d="M49.273,45.362C49.273,45.362,49.273,45.362,49.273,45.362l-1.566-0.003c-0.327,0-0.591-0.266-0.59-0.593  c0-0.326,0.265-0.59,0.591-0.59c0,0,0,0,0.001,0l1.565,0.003c0.327,0,0.591,0.266,0.59,0.593  C49.864,45.098,49.6,45.362,49.273,45.362z"></path><path fill="#000000" d="M35.144,57.927c-0.321,0-0.581-0.26-0.581-0.581V41.919c0-0.321,0.26-0.581,0.581-0.581  c0.321,0,0.581,0.26,0.581,0.581v15.427C35.725,57.667,35.465,57.927,35.144,57.927z"></path><path fill="#000000" d="M41.147,55.216c-0.321,0-0.581-0.26-0.581-0.581V33.983c0-0.321,0.26-0.581,0.581-0.581  s0.581,0.26,0.581,0.581v20.651C41.729,54.956,41.468,55.216,41.147,55.216z"></path><path fill="#000000" d="M47.151,55.216c-0.321,0-0.581-0.26-0.581-0.581V29.723c0-0.321,0.26-0.581,0.581-0.581  s0.581,0.26,0.581,0.581v24.912C47.732,54.956,47.472,55.216,47.151,55.216z"></path><path fill="#000000" d="M53.155,55.216c-0.321,0-0.581-0.26-0.581-0.581V29.715c0-0.321,0.26-0.581,0.581-0.581  c0.321,0,0.581,0.26,0.581,0.581v24.919C53.736,54.956,53.476,55.216,53.155,55.216z"></path><path fill="#000000" d="M66.446,52.346c-1.579-0.799-3.514-0.165-4.315,1.417l-3.587,7.159c-1.647,0.252-8.807,1.776-10.273,9.307  c-0.062,0.321,0.147,0.631,0.468,0.694c0.038,0.007,0.076,0.011,0.113,0.011c0.278,0,0.525-0.196,0.581-0.479  c1.478-7.594,9.223-8.369,9.552-8.398c0.204-0.018,0.385-0.141,0.477-0.325l3.727-7.438c0.505-0.997,1.728-1.398,2.725-0.893  c0.998,0.504,1.399,1.727,0.893,2.726l-8.172,16.058c-0.149,0.291-0.036,0.647,0.255,0.797c0.086,0.044,0.179,0.065,0.271,0.065  c0.214,0,0.421-0.117,0.526-0.32l8.177-16.068C68.66,55.081,68.025,53.145,66.446,52.346z"></path></svg>