<svg xmlns="http://www.w3.org/2000/svg" xmlns:xlink="http://www.w3.org/1999/xlink" version="1.1" x="0px" y="0px" viewBox="0 0 100 100" enable-background="new 0 0 100 100" xml:space="preserve"><path fill="#000000" d="M45.789,83.929h-5.282c-0.149,0-0.293-0.057-0.403-0.159c-11.343-10.555-6.022-26.458-5.968-26.617  c0.106-0.308,0.443-0.471,0.752-0.366c0.309,0.107,0.473,0.443,0.366,0.752c-0.052,0.151-5.064,15.182,5.487,25.206h5.047  c0.327,0,0.591,0.265,0.591,0.592S46.115,83.929,45.789,83.929z"></path><path fill="#000000" d="M53.212,63.015c-0.303,0-0.561-0.232-0.588-0.539c-0.183-2.053-1.684-2.452-1.699-2.456  c-0.317-0.079-0.509-0.4-0.43-0.717c0.08-0.317,0.399-0.51,0.717-0.43c0.096,0.023,2.333,0.617,2.589,3.498  c0.029,0.326-0.211,0.613-0.537,0.642C53.248,63.014,53.23,63.015,53.212,63.015z"></path><path fill="#000000" d="M58.709,95c-0.327,0-0.591-0.265-0.591-0.591V32.814c0-0.327,0.265-0.592,0.591-0.592  s0.591,0.265,0.591,0.592v61.595C59.301,94.735,59.036,95,58.709,95z"></path><path fill="#000000" d="M40.507,95c-0.326,0-0.591-0.265-0.591-0.591V83.337c0-0.327,0.265-0.592,0.591-0.592  c0.327,0,0.592,0.265,0.592,0.592v11.072C41.099,94.735,40.833,95,40.507,95z"></path><path fill="#000000" d="M43.479,86.333h-2.972c-0.326,0-0.591-0.265-0.591-0.591c0-0.327,0.265-0.592,0.591-0.592h2.972  c0.327,0,0.591,0.265,0.591,0.592C44.07,86.068,43.805,86.333,43.479,86.333z"></path><path fill="#000000" d="M56.49,82.86c-0.221,0-0.433-0.124-0.534-0.336c-0.141-0.295-0.016-0.648,0.278-0.789  c4.032-1.927,4.242-3.049,4.21-3.347c-0.066-0.625-1.314-1.127-1.873-1.26c-0.317-0.075-0.514-0.395-0.438-0.712  s0.395-0.513,0.712-0.438c0.266,0.063,2.603,0.665,2.775,2.285c0.153,1.434-1.396,2.876-4.876,4.54  C56.663,82.842,56.576,82.86,56.49,82.86z"></path><path fill="#000000" d="M56.49,87.278c-0.221,0-0.433-0.124-0.534-0.336c-0.141-0.295-0.016-0.648,0.278-0.789  c4.031-1.927,4.242-3.048,4.21-3.346c-0.066-0.627-1.291-1.121-1.874-1.261c-0.317-0.076-0.513-0.396-0.437-0.713  c0.076-0.317,0.394-0.514,0.711-0.437c0.266,0.062,2.603,0.664,2.775,2.285c0.153,1.434-1.396,2.876-4.876,4.54  C56.663,87.26,56.576,87.278,56.49,87.278z"></path><path fill="#000000" d="M56.49,91.917c-0.221,0-0.433-0.124-0.534-0.337c-0.141-0.294-0.016-0.647,0.278-0.789  c4.032-1.927,4.242-3.048,4.21-3.346c-0.066-0.626-1.314-1.127-1.873-1.26c-0.317-0.075-0.514-0.394-0.438-0.711  c0.076-0.318,0.395-0.514,0.712-0.439c0.266,0.063,2.603,0.664,2.775,2.285c0.153,1.433-1.396,2.875-4.876,4.539  C56.663,91.898,56.576,91.917,56.49,91.917z"></path><path fill="#000000" d="M41.482,78.254c-0.245,0-0.474-0.154-0.559-0.398c-3.417-9.857,2.855-14.986,4.706-16.244l-3.557-6.92  c-0.803-1.581-0.172-3.517,1.405-4.32c1.579-0.801,3.514-0.172,4.317,1.405l3.802,7.399c0.149,0.291,0.035,0.647-0.256,0.797  c-0.291,0.148-0.647,0.034-0.796-0.255l-3.802-7.402c-0.508-0.998-1.731-1.396-2.728-0.889c-0.996,0.506-1.394,1.73-0.887,2.726  l3.802,7.398c0.147,0.286,0.039,0.637-0.244,0.791c-0.338,0.185-8.27,4.663-4.643,15.126c0.107,0.309-0.057,0.646-0.365,0.752  C41.611,78.243,41.546,78.254,41.482,78.254z"></path><path fill="#000000" d="M45.197,54.228c-0.21,0-0.411-0.114-0.514-0.309c-1.308-2.467,0.102-3.576,0.162-3.622  c0.256-0.193,0.62-0.144,0.814,0.112c0.191,0.252,0.146,0.609-0.1,0.805c-0.041,0.036-0.534,0.51-0.064,1.699l1.425-0.536  c0.299-0.113,0.635,0.039,0.749,0.339c0.113,0.3-0.039,0.635-0.339,0.749l-1.928,0.725C45.334,54.216,45.265,54.228,45.197,54.228z"></path><path fill="#000000" d="M46.703,30.314c-0.326,0-0.591-0.265-0.591-0.591c-0.003-1.981,1.607-3.596,3.588-3.599  c0.001,0,0.003,0,0.004,0c0.958,0,1.859,0.373,2.538,1.05c0.68,0.678,1.055,1.58,1.056,2.54c0,0.327-0.264,0.592-0.591,0.592h0  c-0.327,0-0.591-0.264-0.592-0.591c0-0.644-0.252-1.249-0.708-1.704c-0.456-0.454-1.06-0.704-1.703-0.704c-0.001,0-0.001,0-0.003,0  c-1.329,0.001-2.409,1.084-2.407,2.414C47.295,30.048,47.03,30.313,46.703,30.314C46.703,30.314,46.703,30.314,46.703,30.314z"></path><path fill="#000000" d="M52.707,33.413c-0.326,0-0.591-0.265-0.592-0.591c-0.003-1.981,1.607-3.596,3.589-3.599  c0.001,0,0.003,0,0.004,0c0.958,0,1.859,0.373,2.538,1.05c0.68,0.678,1.055,1.58,1.056,2.54c0,0.327-0.264,0.592-0.591,0.592  c0,0,0,0,0,0c-0.327,0-0.591-0.264-0.592-0.591c0-0.644-0.252-1.249-0.708-1.704c-0.455-0.454-1.06-0.704-1.702-0.704  c-0.001,0-0.002,0-0.003,0c-1.329,0.001-2.409,1.084-2.407,2.414C53.298,33.147,53.034,33.412,52.707,33.413L52.707,33.413z"></path><path fill="#000000" d="M40.699,34.575c-0.327,0-0.591-0.265-0.591-0.591c-0.003-1.981,1.607-3.596,3.588-3.599  c0.001,0,0.003,0,0.004,0c0.958,0,1.859,0.373,2.538,1.05c0.68,0.678,1.055,1.58,1.056,2.54c0.001,0.327-0.264,0.592-0.59,0.592  c0,0-0.001,0-0.001,0c-0.326,0-0.591-0.265-0.591-0.591c-0.001-0.644-0.252-1.249-0.708-1.704c-0.456-0.454-1.06-0.704-1.703-0.704  c-0.001,0-0.002,0-0.003,0c-1.329,0.001-2.409,1.084-2.407,2.414C41.291,34.309,41.026,34.574,40.699,34.575L40.699,34.575z"></path><path fill="#000000" d="M34.695,42.51c-0.326,0-0.591-0.265-0.591-0.591c-0.002-1.981,1.607-3.595,3.589-3.598  c0.001,0,0.003,0,0.004,0c0.958,0,1.859,0.373,2.538,1.049c0.68,0.678,1.055,1.58,1.056,2.54c0,0.327-0.264,0.592-0.59,0.592h-0.001  c-0.327,0-0.591-0.265-0.591-0.591c-0.001-0.644-0.252-1.25-0.708-1.704c-0.455-0.455-1.06-0.704-1.703-0.704c0,0-0.001,0-0.002,0  c-1.329,0.001-2.409,1.084-2.407,2.414C35.288,42.244,35.023,42.51,34.695,42.51L34.695,42.51z"></path><path fill="#000000" d="M55.957,38.348C55.956,38.348,55.956,38.348,55.957,38.348l-3.131-0.006  c-0.327-0.001-0.591-0.266-0.59-0.593c0-0.326,0.265-0.59,0.591-0.59c0,0,0.001,0,0.001,0l3.13,0.006  c0.327,0,0.591,0.266,0.59,0.592C56.547,38.083,56.283,38.348,55.957,38.348z"></path><path fill="#000000" d="M55.215,40.18C55.215,40.18,55.214,40.18,55.215,40.18l-2.474-0.004c-0.327,0-0.591-0.266-0.59-0.593  c0-0.326,0.265-0.59,0.591-0.59c0,0,0,0,0.001,0l2.473,0.004c0.327,0.001,0.591,0.266,0.59,0.593  C55.806,39.915,55.542,40.18,55.215,40.18z"></path><path fill="#000000" d="M54.443,45.912h-0.001l-1.565-0.003c-0.327-0.001-0.591-0.267-0.59-0.593c0.001-0.326,0.266-0.59,0.592-0.59  c0,0,0,0,0.001,0l1.565,0.003c0.327,0,0.59,0.266,0.59,0.592C55.034,45.647,54.769,45.912,54.443,45.912z"></path><path fill="#000000" d="M54.443,47.686h-0.001l-1.565-0.003c-0.327,0-0.591-0.267-0.59-0.593c0.001-0.326,0.266-0.59,0.592-0.59  c0,0,0,0,0.001,0l1.565,0.003c0.327,0,0.59,0.266,0.59,0.592C55.034,47.422,54.769,47.686,54.443,47.686z"></path><path fill="#000000" d="M43.526,39.51h-0.001l-2.356-0.006c-0.327-0.001-0.59-0.266-0.59-0.593c0.001-0.326,0.265-0.59,0.591-0.59  c0,0,0.001,0,0.001,0l2.356,0.005c0.327,0.001,0.591,0.267,0.59,0.593C44.117,39.246,43.852,39.51,43.526,39.51z"></path><path fill="#000000" d="M43.559,41.341C43.559,41.341,43.559,41.341,43.559,41.341l-2.474-0.004c-0.327,0-0.591-0.266-0.59-0.593  c0-0.326,0.265-0.59,0.591-0.59c0,0,0,0,0.001,0l2.473,0.004c0.327,0.001,0.591,0.266,0.59,0.593  C44.15,41.077,43.885,41.341,43.559,41.341z"></path><path fill="#000000" d="M42.012,47.074c0,0-0.001,0-0.002,0l-0.791-0.003c-0.327-0.002-0.59-0.268-0.589-0.594  c0.001-0.326,0.266-0.589,0.591-0.589c0,0,0.001,0,0.002,0l0.791,0.004c0.327,0.001,0.591,0.267,0.589,0.594  C42.602,46.811,42.338,47.074,42.012,47.074z"></path><path fill="#000000" d="M43.562,48.848c0,0-0.001,0-0.001,0l-2.339-0.004c-0.327,0-0.591-0.266-0.59-0.592  c0-0.326,0.265-0.59,0.591-0.59h0l2.34,0.003c0.327,0.001,0.591,0.266,0.59,0.593C44.152,48.583,43.888,48.848,43.562,48.848z"></path><path fill="#000000" d="M37.31,47.074C37.31,47.074,37.31,47.074,37.31,47.074l-2.341-0.003c-0.327-0.001-0.591-0.266-0.591-0.593  c0.001-0.326,0.266-0.591,0.592-0.591h0.001l2.34,0.004c0.326,0,0.591,0.266,0.59,0.592C37.901,46.809,37.636,47.074,37.31,47.074z"></path><path fill="#000000" d="M36.535,48.848C36.535,48.848,36.535,48.848,36.535,48.848l-1.566-0.004c-0.327,0-0.591-0.266-0.59-0.592  c0.001-0.327,0.266-0.59,0.592-0.59c0,0,0,0,0.001,0l1.565,0.003c0.327,0.001,0.591,0.267,0.59,0.593  C37.126,48.583,36.861,48.848,36.535,48.848z"></path><path fill="#000000" d="M48.402,36.024c0,0-0.001,0-0.002,0l-1.194-0.006c-0.327-0.001-0.59-0.268-0.588-0.594  c0.001-0.326,0.266-0.589,0.591-0.589c0.001,0,0.002,0,0.002,0l1.194,0.005c0.327,0.002,0.59,0.268,0.589,0.594  C48.992,35.761,48.728,36.024,48.402,36.024z"></path><path fill="#000000" d="M48.823,37.855h-0.001l-1.698-0.004c-0.327-0.001-0.591-0.267-0.59-0.593c0-0.326,0.265-0.59,0.591-0.59  c0,0,0.001,0,0.002,0l1.698,0.004c0.327,0.001,0.591,0.267,0.59,0.593S49.149,37.855,48.823,37.855z"></path><path fill="#000000" d="M49.987,43.587C49.987,43.587,49.986,43.587,49.987,43.587l-2.729-0.003c-0.326,0-0.59-0.266-0.59-0.593  c0-0.326,0.265-0.591,0.591-0.591c0,0,0,0,0,0l2.728,0.003c0.327,0,0.591,0.266,0.59,0.592  C50.578,43.323,50.313,43.587,49.987,43.587z"></path><path fill="#000000" d="M48.825,45.362h-0.001l-1.565-0.003c-0.327,0-0.591-0.266-0.59-0.593c0.001-0.326,0.266-0.59,0.591-0.59  c0,0,0,0,0,0l1.566,0.003c0.326,0,0.591,0.266,0.59,0.593C49.416,45.098,49.151,45.362,48.825,45.362z"></path><path fill="#000000" d="M34.695,57.927c-0.321,0-0.581-0.26-0.581-0.581V41.919c0-0.321,0.26-0.581,0.581-0.581  c0.321,0,0.581,0.26,0.581,0.581v15.427C35.276,57.667,35.017,57.927,34.695,57.927z"></path><path fill="#000000" d="M40.699,55.216c-0.321,0-0.581-0.26-0.581-0.581V33.983c0-0.321,0.26-0.581,0.581-0.581  c0.321,0,0.581,0.26,0.581,0.581v20.651C41.28,54.956,41.02,55.216,40.699,55.216z"></path><path fill="#000000" d="M46.703,51.629c-0.321,0-0.581-0.26-0.581-0.581V29.723c0-0.321,0.26-0.581,0.581-0.581  s0.581,0.26,0.581,0.581v21.325C47.284,51.369,47.023,51.629,46.703,51.629z"></path><path fill="#000000" d="M52.707,55.216c-0.321,0-0.581-0.26-0.581-0.581V29.715c0-0.321,0.26-0.581,0.581-0.581  c0.321,0,0.581,0.26,0.581,0.581v24.919C53.288,54.956,53.027,55.216,52.707,55.216z"></path></svg>