<svg xmlns="http://www.w3.org/2000/svg" xmlns:xlink="http://www.w3.org/1999/xlink" version="1.1" x="0px" y="0px" viewBox="0 0 100 100" enable-background="new 0 0 100 100" xml:space="preserve"><path fill="#000000" d="M46.541,83.929H41.26c-0.176,0-0.34-0.077-0.453-0.211c-10.014-11.892-4.996-25.141-4.943-25.274  c0.118-0.304,0.46-0.454,0.766-0.335c0.304,0.119,0.453,0.462,0.336,0.766C36.916,59,32.221,71.46,41.536,82.745h5.005  c0.326,0,0.591,0.265,0.591,0.592S46.867,83.929,46.541,83.929z"></path><path fill="#000000" d="M57.242,82.86c-0.221,0-0.432-0.124-0.533-0.336c-0.141-0.295-0.017-0.648,0.277-0.789  c4.033-1.927,4.243-3.049,4.211-3.347c-0.066-0.625-1.313-1.127-1.872-1.26c-0.317-0.075-0.515-0.395-0.438-0.712  c0.075-0.318,0.395-0.513,0.712-0.438c0.267,0.063,2.603,0.665,2.775,2.285c0.153,1.434-1.396,2.876-4.876,4.54  C57.415,82.842,57.328,82.86,57.242,82.86z"></path><path fill="#000000" d="M59.462,95c-0.327,0-0.591-0.265-0.591-0.591V75.551c0-0.327,0.264-0.592,0.591-0.592  s0.591,0.265,0.591,0.592v18.857C60.053,94.735,59.789,95,59.462,95z"></path><path fill="#000000" d="M41.26,95c-0.327,0-0.592-0.265-0.592-0.591V83.337c0-0.327,0.265-0.592,0.592-0.592  c0.326,0,0.591,0.265,0.591,0.592v11.072C41.851,94.735,41.586,95,41.26,95z"></path><path fill="#000000" d="M44.23,86.333H41.26c-0.327,0-0.592-0.265-0.592-0.591c0-0.327,0.265-0.592,0.592-0.592h2.971  c0.326,0,0.592,0.265,0.592,0.592C44.822,86.068,44.557,86.333,44.23,86.333z"></path><path fill="#000000" d="M57.242,87.278c-0.221,0-0.432-0.124-0.533-0.336c-0.141-0.295-0.017-0.648,0.277-0.789  c4.031-1.927,4.242-3.048,4.211-3.346c-0.065-0.627-1.29-1.121-1.873-1.261c-0.317-0.076-0.514-0.396-0.438-0.713  c0.076-0.317,0.394-0.514,0.712-0.437c0.267,0.062,2.603,0.664,2.775,2.285c0.153,1.434-1.396,2.876-4.876,4.54  C57.415,87.26,57.328,87.278,57.242,87.278z"></path><path fill="#000000" d="M57.242,91.917c-0.221,0-0.432-0.124-0.533-0.337c-0.141-0.294-0.017-0.647,0.277-0.789  c4.033-1.927,4.243-3.048,4.211-3.346c-0.066-0.626-1.313-1.127-1.872-1.26c-0.317-0.075-0.515-0.394-0.438-0.711  c0.075-0.318,0.395-0.514,0.712-0.439c0.267,0.063,2.603,0.664,2.775,2.285c0.153,1.433-1.396,2.875-4.876,4.539  C57.415,91.898,57.328,91.917,57.242,91.917z"></path><path fill="#000000" d="M39.471,62.623c-1.696,0-3.129-1.271-3.334-2.957l-0.938-6.517c-0.224-1.853,1.092-3.53,2.932-3.752  c1.861-0.229,3.519,1.112,3.738,2.932l0.939,6.518c0.223,1.854-1.093,3.53-2.932,3.752C39.74,62.614,39.604,62.623,39.471,62.623z   M38.538,50.554c-0.088,0-0.177,0.006-0.266,0.017c-1.192,0.144-2.044,1.231-1.901,2.423l0.939,6.517  c0.145,1.193,1.217,2.055,2.425,1.913c1.191-0.144,2.044-1.23,1.9-2.422l-0.938-6.517C40.563,51.378,39.636,50.554,38.538,50.554z"></path><path fill="#000000" d="M42.346,59.849c-0.287,0-0.539-0.21-0.583-0.503l-1.132-7.506c-0.135-0.887,0.085-1.773,0.617-2.497  c0.533-0.723,1.314-1.195,2.203-1.329c1.83-0.273,3.548,0.989,3.824,2.819l0.851,5.637c0.049,0.323-0.173,0.624-0.497,0.673  c-0.322,0.049-0.624-0.174-0.672-0.497l-0.851-5.636c-0.18-1.186-1.294-2.003-2.479-1.827c-0.574,0.087-1.08,0.393-1.426,0.861  c-0.346,0.469-0.488,1.043-0.4,1.618l1.131,7.506c0.049,0.324-0.174,0.625-0.496,0.673C42.405,59.847,42.375,59.849,42.346,59.849z"></path><path fill="#000000" d="M47.63,57.087c-0.288,0-0.54-0.21-0.584-0.503l-0.837-5.55c-0.134-0.887,0.086-1.773,0.617-2.497  c0.533-0.723,1.315-1.195,2.203-1.329c1.832-0.275,3.548,0.989,3.825,2.82l0.941,6.246c0.049,0.323-0.173,0.624-0.497,0.673  c-0.323,0.048-0.623-0.174-0.672-0.497l-0.942-6.245c-0.18-1.186-1.292-2.005-2.479-1.827c-0.574,0.086-1.081,0.392-1.426,0.86  c-0.346,0.469-0.487,1.043-0.4,1.618l0.836,5.55c0.049,0.323-0.173,0.624-0.496,0.673C47.689,57.084,47.659,57.087,47.63,57.087z"></path><path fill="#000000" d="M58.863,57.087c-0.287,0-0.539-0.21-0.584-0.503l-1.016-6.735c-0.18-1.186-1.293-2.001-2.479-1.827  c-0.574,0.087-1.082,0.393-1.427,0.861s-0.487,1.042-0.4,1.618l0.888,5.891c0.049,0.323-0.174,0.624-0.496,0.673  c-0.323,0.05-0.625-0.174-0.674-0.497l-0.887-5.891c-0.135-0.887,0.084-1.773,0.617-2.497c0.532-0.723,1.314-1.195,2.202-1.328  c1.831-0.275,3.548,0.989,3.825,2.819l1.016,6.735c0.049,0.323-0.174,0.624-0.496,0.673C58.923,57.084,58.893,57.087,58.863,57.087z  "></path><path fill="#000000" d="M59.461,76.132c-0.089,0-0.18-0.021-0.264-0.064c-0.286-0.146-0.398-0.497-0.252-0.782  c5.217-10.172,4.866-14.535,3.653-16.404c-0.927-1.427-2.461-1.524-2.848-1.525c-0.04,0.009-0.081,0.014-0.123,0.014  c-0.001,0-0.001,0-0.001,0L45.01,57.359c-0.004,0-0.007,0-0.01,0c-1.121,0-2.035,0.907-2.041,2.027  c-0.006,1.125,0.904,2.044,2.027,2.05l8.318,0.009c0.297,0,0.547,0.225,0.577,0.521c0.031,0.295-0.165,0.567-0.456,0.628  c-0.279,0.062-6.836,1.606-5.002,10.57c0.064,0.314-0.139,0.621-0.453,0.686s-0.621-0.138-0.686-0.453  c-1.199-5.856,0.978-9.179,3.319-10.793l-5.622-0.006c-1.767-0.01-3.195-1.453-3.186-3.218c0.01-1.758,1.443-3.183,3.2-3.183  c0.005,0,0.011,0,0.017,0l14.502,0.012c0.023-0.005,0.049-0.008,0.075-0.011c0.103-0.007,2.548-0.136,3.97,2.033  c2.025,3.087,0.82,9.004-3.582,17.585C59.875,76.017,59.672,76.132,59.461,76.132z"></path><path fill="#000000" d="M45.516,60.055c-0.009,0-0.019,0-0.027-0.001c-2.789-0.133-3.023-1.911-3.032-1.987  c-0.036-0.319,0.192-0.606,0.511-0.643c0.313-0.039,0.598,0.185,0.642,0.497c0.011,0.053,0.167,0.722,1.434,0.923l0.329-1.762  c0.059-0.315,0.361-0.526,0.678-0.465c0.314,0.059,0.523,0.362,0.465,0.678l-0.427,2.286C46.035,59.857,45.795,60.055,45.516,60.055  z"></path></svg>