<svg xmlns="http://www.w3.org/2000/svg" xmlns:xlink="http://www.w3.org/1999/xlink" version="1.1" x="0px" y="0px" viewBox="0 0 100 100" enable-background="new 0 0 100 100" xml:space="preserve"><path fill="#000000" d="M47.006,83.927h-5.282c-0.149,0-0.294-0.057-0.403-0.159c-11.343-10.553-6.158-26.456-6.105-26.615  c0.105-0.309,0.439-0.477,0.75-0.372c0.309,0.104,0.476,0.439,0.372,0.749c-0.051,0.151-4.936,15.186,5.62,25.213h5.049  c0.327,0,0.592,0.265,0.592,0.592C47.598,83.662,47.333,83.927,47.006,83.927z"></path><path fill="#000000" d="M54.43,63.012c-0.303,0-0.562-0.232-0.589-0.54c-0.18-2.021-1.642-2.44-1.704-2.458  c-0.313-0.084-0.501-0.407-0.42-0.721c0.083-0.314,0.396-0.505,0.714-0.425c0.095,0.023,2.332,0.618,2.59,3.499  c0.028,0.325-0.212,0.613-0.537,0.641C54.466,63.011,54.447,63.012,54.43,63.012z"></path><path fill="#000000" d="M59.928,95c-0.327,0-0.592-0.265-0.592-0.592V52.16c0-0.327,0.265-0.592,0.592-0.592  s0.592,0.265,0.592,0.592v42.249C60.52,94.735,60.255,95,59.928,95z"></path><path fill="#000000" d="M41.724,95c-0.327,0-0.592-0.265-0.592-0.592V83.336c0-0.327,0.265-0.592,0.592-0.592  c0.326,0,0.592,0.265,0.592,0.592v11.072C42.315,94.735,42.05,95,41.724,95z"></path><path fill="#000000" d="M44.695,86.332h-2.972c-0.327,0-0.592-0.265-0.592-0.592c0-0.326,0.265-0.591,0.592-0.591h2.972  c0.327,0,0.592,0.265,0.592,0.591C45.287,86.067,45.022,86.332,44.695,86.332z"></path><path fill="#000000" d="M57.707,82.859c-0.22,0-0.432-0.124-0.533-0.336c-0.141-0.295-0.016-0.648,0.278-0.789  c4.034-1.928,4.243-3.05,4.212-3.348c-0.067-0.625-1.313-1.127-1.873-1.26c-0.318-0.075-0.514-0.394-0.438-0.712  c0.075-0.316,0.391-0.518,0.712-0.438c0.266,0.063,2.603,0.664,2.775,2.285c0.153,1.434-1.397,2.877-4.877,4.54  C57.88,82.841,57.793,82.859,57.707,82.859z"></path><path fill="#000000" d="M57.707,87.278c-0.22,0-0.432-0.125-0.533-0.336c-0.141-0.295-0.016-0.648,0.278-0.789  c4.034-1.929,4.243-3.05,4.212-3.348c-0.067-0.625-1.313-1.127-1.873-1.26c-0.318-0.075-0.514-0.394-0.438-0.712  c0.075-0.317,0.391-0.517,0.712-0.438c0.266,0.063,2.603,0.664,2.775,2.285c0.153,1.434-1.397,2.876-4.877,4.54  C57.88,87.259,57.793,87.278,57.707,87.278z"></path><path fill="#000000" d="M57.707,91.917c-0.22,0-0.432-0.125-0.533-0.337c-0.141-0.294-0.016-0.647,0.278-0.789  c4.034-1.928,4.243-3.049,4.212-3.347c-0.067-0.625-1.313-1.127-1.873-1.26c-0.318-0.075-0.514-0.395-0.438-0.712  c0.075-0.317,0.391-0.517,0.712-0.438c0.266,0.063,2.603,0.664,2.775,2.285c0.153,1.434-1.397,2.876-4.877,4.54  C57.88,91.898,57.793,91.917,57.707,91.917z"></path><path fill="#000000" d="M42.698,78.252c-0.246,0-0.475-0.154-0.559-0.398c-3.418-9.858,2.855-14.987,4.706-16.245l-3.557-6.921  c-0.804-1.58-0.173-3.517,1.403-4.319c1.581-0.802,3.515-0.172,4.318,1.405l3.802,7.4c0.149,0.291,0.034,0.647-0.257,0.796  c-0.286,0.148-0.646,0.035-0.796-0.256l-3.803-7.402c-0.509-0.998-1.73-1.395-2.729-0.889c-0.995,0.507-1.394,1.73-0.887,2.727  l3.803,7.399c0.147,0.285,0.038,0.636-0.243,0.79c-0.34,0.185-8.271,4.664-4.645,15.128c0.107,0.309-0.056,0.646-0.365,0.752  C42.827,78.242,42.763,78.252,42.698,78.252z"></path><path fill="#000000" d="M46.414,54.224c-0.21,0-0.409-0.114-0.514-0.309c-1.309-2.468,0.103-3.576,0.162-3.623  c0.258-0.193,0.62-0.144,0.815,0.112c0.19,0.252,0.145,0.609-0.101,0.805c-0.041,0.036-0.536,0.511-0.064,1.699l1.425-0.536  c0.297-0.115,0.635,0.039,0.748,0.339s-0.039,0.635-0.34,0.749l-1.928,0.726C46.552,54.212,46.483,54.224,46.414,54.224z"></path><path fill="#000000" d="M65.304,32.224c-0.054,0-0.109-0.008-0.163-0.023c-0.314-0.09-0.495-0.417-0.405-0.731  c0.178-0.619,0.104-1.27-0.209-1.833c-0.312-0.563-0.824-0.971-1.443-1.149c-0.621-0.176-1.269-0.104-1.833,0.208  c-0.563,0.312-0.971,0.824-1.148,1.443c-0.09,0.314-0.422,0.496-0.731,0.406c-0.314-0.09-0.495-0.418-0.405-0.731  c0.265-0.923,0.873-1.688,1.713-2.152c0.84-0.465,1.813-0.575,2.731-0.31c0.923,0.265,1.688,0.873,2.152,1.712  c0.465,0.839,0.575,1.81,0.311,2.732C65.798,32.055,65.561,32.224,65.304,32.224z"></path><path fill="#000000" d="M52.716,49.947c-1.224,0-2.152-0.892-2.37-2.276c-0.051-0.323,0.171-0.625,0.492-0.676  c0.333-0.048,0.627,0.17,0.677,0.493c0.048,0.3,0.273,1.275,1.201,1.275c0.003,0,0.007,0,0.01,0c0.218-0.001,0.877-0.005,1.272-1.35  c0.091-0.313,0.422-0.494,0.733-0.401c0.312,0.092,0.493,0.42,0.4,0.734c-0.529,1.811-1.597,2.196-2.399,2.201  C52.728,49.947,52.722,49.947,52.716,49.947z"></path><path fill="#000000" d="M42.023,30.737c-0.285,0-0.536-0.208-0.583-0.499c-0.15-0.948,0.077-1.898,0.642-2.675  c0.563-0.777,1.397-1.287,2.346-1.438c0.947-0.149,1.897,0.078,2.673,0.642c0.777,0.564,1.287,1.397,1.438,2.345  c0.051,0.323-0.169,0.625-0.492,0.677c-0.312,0.052-0.624-0.169-0.676-0.492c-0.101-0.636-0.443-1.195-0.965-1.573  c-0.52-0.378-1.158-0.53-1.793-0.43c-0.637,0.101-1.195,0.443-1.573,0.964c-0.378,0.521-0.531,1.158-0.43,1.793  c0.051,0.323-0.169,0.626-0.491,0.677C42.086,30.735,42.055,30.737,42.023,30.737z"></path><path fill="#000000" d="M45.302,51.202c-0.285,0-0.537-0.208-0.583-0.498L41.44,30.239c-0.052-0.323,0.169-0.626,0.491-0.678  c0.318-0.044,0.626,0.168,0.678,0.491l3.277,20.464c0.052,0.323-0.168,0.626-0.491,0.678C45.364,51.199,45.333,51.202,45.302,51.202  z"></path><path fill="#000000" d="M54.565,48.171c-0.054,0-0.107-0.007-0.161-0.022c-0.314-0.089-0.498-0.416-0.409-0.73l4.969-17.604  c0.089-0.313,0.415-0.497,0.73-0.409c0.314,0.089,0.497,0.416,0.408,0.73l-4.968,17.604C55.061,48.001,54.823,48.171,54.565,48.171z  "></path><path fill="#000000" d="M59.928,52.751c-0.05,0-0.101-0.006-0.15-0.02c-0.316-0.084-0.505-0.407-0.421-0.723l5.312-20.142  c0.083-0.315,0.407-0.505,0.722-0.421c0.316,0.084,0.505,0.407,0.421,0.723l-5.312,20.142C60.43,52.576,60.19,52.751,59.928,52.751z  "></path><path fill="#000000" d="M50.93,48.171c-0.285,0-0.536-0.206-0.584-0.497L47.37,29.301c-0.052-0.323,0.167-0.627,0.49-0.679  c0.318-0.054,0.625,0.167,0.678,0.489l2.977,18.374c0.052,0.323-0.167,0.626-0.49,0.678C50.993,48.169,50.961,48.171,50.93,48.171z"></path><path fill="#000000" d="M61.051,36.745c-0.048,0-0.096-0.006-0.144-0.018l-3.037-0.764c-0.317-0.08-0.509-0.401-0.43-0.718  c0.081-0.316,0.409-0.508,0.718-0.429l3.037,0.764c0.317,0.08,0.509,0.401,0.43,0.718C61.557,36.565,61.315,36.745,61.051,36.745z"></path><path fill="#000000" d="M59.889,38.342c-0.048,0-0.095-0.006-0.144-0.018l-2.398-0.603c-0.317-0.079-0.51-0.401-0.43-0.717  c0.079-0.317,0.396-0.512,0.718-0.43l2.398,0.603c0.317,0.08,0.509,0.401,0.43,0.718C60.395,38.163,60.154,38.342,59.889,38.342z"></path><path fill="#000000" d="M57.753,43.718c-0.048,0-0.097-0.006-0.144-0.018l-1.52-0.382c-0.317-0.08-0.509-0.401-0.43-0.718  c0.081-0.316,0.405-0.508,0.718-0.429l1.519,0.382c0.318,0.08,0.51,0.401,0.43,0.718C58.259,43.539,58.019,43.718,57.753,43.718z"></path><path fill="#000000" d="M59.13,46.073c-0.054,0-0.107-0.007-0.163-0.023l-3.42-0.979c-0.314-0.09-0.495-0.417-0.405-0.732  c0.089-0.313,0.414-0.496,0.731-0.406l3.42,0.979c0.314,0.09,0.495,0.417,0.405,0.732C59.624,45.904,59.387,46.073,59.13,46.073z"></path><path fill="#000000" d="M42.831,34.569c-0.277,0-0.524-0.196-0.58-0.479c-0.061-0.321,0.148-0.631,0.47-0.693l2.222-0.431  c0.317-0.059,0.63,0.146,0.692,0.468c0.062,0.321-0.147,0.631-0.469,0.693l-2.222,0.431C42.906,34.566,42.869,34.569,42.831,34.569z  "></path><path fill="#000000" d="M43.102,36.384c-0.273,0-0.518-0.19-0.578-0.468c-0.067-0.319,0.136-0.633,0.455-0.702l3.903-0.833  c0.324-0.065,0.634,0.136,0.703,0.455c0.067,0.319-0.136,0.634-0.455,0.702l-3.903,0.833C43.184,36.38,43.143,36.384,43.102,36.384z  "></path><path fill="#000000" d="M44.338,41.986c-0.277,0-0.525-0.196-0.58-0.479c-0.062-0.321,0.147-0.631,0.469-0.693l1.535-0.298  c0.309-0.061,0.631,0.146,0.693,0.468c0.062,0.321-0.147,0.631-0.469,0.693l-1.535,0.298C44.414,41.982,44.376,41.986,44.338,41.986  z"></path><path fill="#000000" d="M44.607,43.8c-0.284,0-0.536-0.208-0.583-0.498c-0.052-0.323,0.168-0.626,0.491-0.678l1.059-0.169  c0.315-0.046,0.625,0.168,0.677,0.491s-0.168,0.626-0.491,0.678l-1.058,0.169C44.67,43.797,44.64,43.8,44.607,43.8z"></path><path fill="#000000" d="M38.495,60.675c-1.52,0-2.842-1.082-3.145-2.573l-1.26-5.549c-0.354-1.748,0.771-3.446,2.506-3.797  c1.758-0.358,3.44,0.809,3.785,2.507l1.26,5.55c0.354,1.749-0.771,3.446-2.505,3.797C38.922,60.654,38.707,60.675,38.495,60.675z   M37.237,49.875c-0.133,0-0.27,0.013-0.406,0.041c-1.096,0.222-1.806,1.294-1.583,2.39l1.26,5.549  c0.221,1.087,1.277,1.82,2.394,1.597c1.096-0.222,1.806-1.294,1.584-2.39l-1.26-5.549C39.032,50.558,38.196,49.875,37.237,49.875z"></path><path fill="#000000" d="M44.007,60.778c-1.543,0-2.908-1.119-3.166-2.689l-1.697-8.96c-0.142-0.86,0.058-1.71,0.557-2.407  c0.5-0.697,1.242-1.157,2.088-1.296c0.851-0.142,1.695,0.06,2.392,0.559c0.697,0.5,1.158,1.241,1.297,2.087l0.466,2.457  c0.062,0.321-0.15,0.63-0.472,0.691c-0.318,0.055-0.629-0.15-0.69-0.471l-0.468-2.47c-0.092-0.548-0.382-1.016-0.821-1.332  c-0.44-0.315-0.979-0.44-1.511-0.353c-0.534,0.088-1.003,0.379-1.318,0.819c-0.315,0.44-0.441,0.977-0.354,1.511l1.696,8.96  c0.184,1.117,1.236,1.862,2.333,1.685c0.271-0.045,0.525-0.141,0.754-0.286c0.278-0.176,0.643-0.091,0.816,0.183  c0.175,0.276,0.093,0.642-0.183,0.816c-0.363,0.23-0.766,0.383-1.195,0.455C44.354,60.764,44.18,60.778,44.007,60.778z"></path><path fill="#000000" d="M44.433,60.743c-0.283,0-0.534-0.206-0.582-0.496c-0.054-0.322,0.165-0.626,0.487-0.68  c0.558-0.091,1.039-0.401,1.354-0.872c0.182-0.271,0.549-0.345,0.82-0.162c0.271,0.181,0.344,0.549,0.162,0.82  c-0.492,0.734-1.273,1.237-2.145,1.38C44.497,60.741,44.465,60.743,44.433,60.743z"></path><path fill="#000000" d="M38.558,59.097L38.558,59.097c-1.019,0-1.764-0.66-1.994-1.764c-0.065-0.31,0.13-0.615,0.439-0.685  l2.58-0.591c0.299-0.067,0.591,0.102,0.682,0.388c0.211,0.652,0.183,1.227-0.086,1.708c-0.381,0.683-1.09,0.875-1.169,0.895  C38.978,59.056,38.802,59.097,38.558,59.097z M37.915,57.631c0.149,0.205,0.36,0.304,0.643,0.304l0,0  c0.103,0,0.174-0.015,0.179-0.016l0,0c-0.002,0,0.297-0.088,0.431-0.337c0.039-0.074,0.063-0.158,0.071-0.254L37.915,57.631z"></path><path fill="#000000" d="M44.144,59.242c-0.292,0-0.685-0.057-1.061-0.294c-0.479-0.3-0.792-0.794-0.934-1.47  c-0.065-0.31,0.131-0.615,0.439-0.685l2.334-0.534c0.317-0.072,0.624,0.125,0.695,0.437c0.021,0.094,0.02,0.187-0.003,0.274  c0.231,0.09,0.389,0.324,0.368,0.585c-0.078,1.043-0.908,1.521-1.387,1.639C44.56,59.202,44.386,59.242,44.144,59.242z   M43.503,57.775c0.058,0.079,0.123,0.142,0.197,0.188c0.273,0.173,0.612,0.102,0.617,0.101c0.072-0.02,0.471-0.153,0.507-0.591  L43.503,57.775z"></path></svg>