<svg xmlns="http://www.w3.org/2000/svg" xmlns:xlink="http://www.w3.org/1999/xlink" version="1.1" x="0px" y="0px" viewBox="0 0 100 100" enable-background="new 0 0 100 100" xml:space="preserve"><path fill="#000000" d="M48.551,83.929H43.27c-0.149,0-0.294-0.057-0.403-0.159c-11.343-10.555-6.023-26.458-5.968-26.617  c0.082-0.224,0.486-1.306,0.753-1.696c0.185-0.27,0.552-0.338,0.822-0.155c0.27,0.185,0.339,0.552,0.155,0.822  c-0.135,0.197-0.447,0.967-0.615,1.426c-0.049,0.14-5.061,15.171,5.491,25.195h5.047c0.327,0,0.592,0.265,0.592,0.592  S48.878,83.929,48.551,83.929z"></path><path fill="#000000" d="M54.769,61.803c-0.303,0-0.561-0.231-0.588-0.539c-0.182-2.052-1.683-2.452-1.698-2.456  c-0.317-0.08-0.51-0.401-0.43-0.717c0.079-0.317,0.403-0.509,0.717-0.43c0.095,0.024,2.333,0.617,2.589,3.498  c0.029,0.326-0.211,0.613-0.537,0.642C54.804,61.803,54.786,61.803,54.769,61.803z"></path><path fill="#000000" d="M61.472,95c-0.327,0-0.591-0.265-0.591-0.591V32.814c0-0.327,0.265-0.592,0.591-0.592  c0.327,0,0.592,0.265,0.592,0.592v61.595C62.064,94.735,61.799,95,61.472,95z"></path><path fill="#000000" d="M43.27,95c-0.327,0-0.592-0.265-0.592-0.591V83.337c0-0.327,0.265-0.592,0.592-0.592  c0.327,0,0.591,0.265,0.591,0.592v11.072C43.861,94.735,43.597,95,43.27,95z"></path><path fill="#000000" d="M46.241,86.333H43.27c-0.327,0-0.592-0.265-0.592-0.591c0-0.327,0.265-0.592,0.592-0.592h2.971  c0.327,0,0.592,0.265,0.592,0.592C46.833,86.068,46.568,86.333,46.241,86.333z"></path><path fill="#000000" d="M59.253,82.86c-0.221,0-0.433-0.124-0.535-0.336c-0.141-0.295-0.016-0.648,0.279-0.789  c4.032-1.927,4.242-3.049,4.21-3.347c-0.067-0.625-1.314-1.127-1.873-1.26c-0.318-0.075-0.514-0.395-0.438-0.712  c0.076-0.317,0.392-0.514,0.712-0.438c0.266,0.063,2.603,0.665,2.775,2.285c0.153,1.434-1.396,2.876-4.876,4.54  C59.426,82.842,59.338,82.86,59.253,82.86z"></path><path fill="#000000" d="M59.253,87.278c-0.221,0-0.433-0.124-0.535-0.336c-0.141-0.295-0.016-0.648,0.279-0.789  c4.031-1.927,4.242-3.048,4.21-3.346c-0.066-0.627-1.291-1.121-1.874-1.261c-0.317-0.076-0.513-0.396-0.437-0.713  c0.075-0.317,0.397-0.513,0.711-0.437c0.266,0.062,2.603,0.664,2.775,2.285c0.153,1.434-1.396,2.876-4.876,4.54  C59.426,87.26,59.338,87.278,59.253,87.278z"></path><path fill="#000000" d="M59.253,91.917c-0.221,0-0.433-0.124-0.535-0.337c-0.141-0.294-0.016-0.647,0.279-0.789  c4.032-1.927,4.242-3.048,4.21-3.346c-0.067-0.626-1.314-1.127-1.873-1.26c-0.318-0.075-0.515-0.394-0.439-0.711  c0.076-0.318,0.395-0.515,0.712-0.439c0.266,0.063,2.603,0.664,2.775,2.285c0.153,1.433-1.396,2.875-4.876,4.539  C59.426,91.898,59.338,91.917,59.253,91.917z"></path><path fill="#000000" d="M55.469,33.413c-0.327,0-0.591-0.265-0.592-0.591c-0.002-1.981,1.607-3.596,3.589-3.599  c0.001,0,0.003,0,0.004,0c0.958,0,1.859,0.373,2.538,1.05c0.68,0.678,1.054,1.58,1.056,2.54c0,0.327-0.265,0.592-0.591,0.592  c0,0,0,0,0,0c-0.327,0-0.592-0.264-0.592-0.591c-0.001-0.644-0.252-1.249-0.708-1.704c-0.455-0.454-1.06-0.704-1.702-0.704  c-0.001,0-0.002,0-0.003,0c-1.329,0.001-2.409,1.084-2.407,2.414C56.061,33.147,55.797,33.412,55.469,33.413  C55.47,33.413,55.47,33.413,55.469,33.413z"></path><path fill="#000000" d="M58.719,38.348L58.719,38.348l-3.131-0.006c-0.327-0.001-0.591-0.266-0.59-0.593  c0-0.326,0.265-0.59,0.591-0.59c0,0,0.001,0,0.001,0l3.13,0.006c0.327,0,0.591,0.266,0.591,0.592  C59.31,38.083,59.045,38.348,58.719,38.348z"></path><path fill="#000000" d="M57.978,40.18C57.978,40.18,57.978,40.18,57.978,40.18l-2.474-0.004c-0.327,0-0.591-0.266-0.59-0.593  c0-0.326,0.265-0.59,0.591-0.59h0.001l2.472,0.004c0.327,0.001,0.591,0.266,0.59,0.593C58.569,39.915,58.304,40.18,57.978,40.18z"></path><path fill="#000000" d="M57.206,45.912c-0.001,0-0.001,0-0.001,0l-1.565-0.003c-0.327-0.001-0.591-0.267-0.591-0.593  c0.001-0.326,0.266-0.59,0.592-0.59c0,0,0,0,0.001,0l1.565,0.003c0.326,0,0.591,0.266,0.59,0.592  C57.797,45.647,57.532,45.912,57.206,45.912z"></path><path fill="#000000" d="M57.206,47.686c-0.001,0-0.001,0-0.001,0l-1.565-0.003c-0.327,0-0.591-0.267-0.591-0.593  c0.001-0.326,0.266-0.59,0.592-0.59c0,0,0,0,0.001,0l1.565,0.003c0.326,0,0.591,0.266,0.59,0.592  C57.797,47.422,57.532,47.686,57.206,47.686z"></path><path fill="#000000" d="M53.745,52.641c-0.276,0-0.52-0.197-0.571-0.478c-0.057-0.316,0.153-0.618,0.469-0.675  c1.339-0.242,1.251-2.161,1.247-2.243l0-16.424c0-0.321,0.26-0.581,0.581-0.581s0.581,0.26,0.581,0.581v16.391  c0.063,1.09-0.329,3.081-2.202,3.419C53.814,52.638,53.779,52.641,53.745,52.641z"></path><path fill="#000000" d="M41.204,60.678c-1.519,0-2.841-1.081-3.144-2.571l-1.26-5.549c-0.354-1.749,0.771-3.446,2.505-3.797  c0.211-0.043,0.428-0.065,0.642-0.065c1.519,0,2.841,1.082,3.143,2.572l1.261,5.548c0.354,1.749-0.771,3.446-2.505,3.797  C41.634,60.657,41.418,60.678,41.204,60.678z M39.947,49.879c-0.135,0-0.272,0.014-0.406,0.041  c-1.096,0.223-1.806,1.295-1.584,2.391l1.26,5.548c0.194,0.955,1.029,1.637,1.988,1.637c0.135,0,0.272-0.014,0.406-0.041  c1.095-0.222,1.806-1.294,1.584-2.391l-1.26-5.548C41.74,50.562,40.905,49.879,39.947,49.879z"></path><path fill="#000000" d="M46.714,60.781c-1.542,0-2.907-1.117-3.167-2.688l-1.696-8.959c-0.29-1.761,0.897-3.415,2.644-3.703  c1.75-0.285,3.402,0.9,3.689,2.646l0.417,2.204c0.061,0.321-0.15,0.63-0.471,0.691c-0.32,0.062-0.63-0.149-0.691-0.471l-0.42-2.218  c-0.184-1.116-1.224-1.865-2.333-1.685c-1.103,0.182-1.853,1.227-1.671,2.33l1.696,8.959c0.184,1.116,1.23,1.864,2.333,1.685  c0.137-0.022,0.271-0.059,0.399-0.107c0.306-0.115,0.647,0.036,0.764,0.341c0.117,0.305-0.036,0.647-0.341,0.764  c-0.202,0.077-0.415,0.134-0.63,0.17C47.062,60.767,46.887,60.781,46.714,60.781z"></path><path fill="#000000" d="M53.012,58.44c-0.189,0-0.375-0.091-0.49-0.259c-0.184-0.27-0.113-0.638,0.157-0.821  c0.613-0.417,0.95-1.133,0.88-1.871l-1.082-9.054c-0.107-1.126-1.095-1.951-2.212-1.84c-0.539,0.051-1.026,0.31-1.371,0.727  s-0.507,0.944-0.455,1.483l0.455,3.812c0.039,0.324-0.193,0.619-0.517,0.657c-0.323,0.037-0.619-0.192-0.658-0.517l-0.457-3.826  c-0.083-0.868,0.173-1.702,0.72-2.362c0.546-0.662,1.317-1.07,2.17-1.152c1.763-0.16,3.332,1.13,3.5,2.892l1.082,9.054  c0.112,1.181-0.422,2.315-1.392,2.974C53.242,58.407,53.126,58.44,53.012,58.44z"></path><path fill="#000000" d="M41.266,59.1L41.266,59.1c-1.018,0-1.763-0.659-1.994-1.763c-0.065-0.311,0.13-0.615,0.439-0.686  l2.581-0.591c0.292-0.069,0.59,0.101,0.683,0.388c0.21,0.652,0.181,1.227-0.087,1.708c-0.38,0.683-1.089,0.875-1.168,0.895  C41.686,59.06,41.511,59.1,41.266,59.1z M40.624,57.634c0.149,0.205,0.361,0.303,0.643,0.303l0,0c0.103,0,0.174-0.015,0.179-0.016  l0,0c-0.001,0,0.297-0.089,0.431-0.338c0.039-0.073,0.062-0.157,0.071-0.252L40.624,57.634z"></path><path fill="#000000" d="M43.038,77.042c-0.245,0-0.474-0.153-0.559-0.398c-3.417-9.857,2.854-14.986,4.706-16.244l-3.557-6.92  c-0.804-1.58-0.172-3.517,1.405-4.319c1.577-0.802,3.515-0.172,4.317,1.405l3.802,7.399c0.149,0.291,0.035,0.647-0.255,0.797  c-0.291,0.148-0.647,0.035-0.796-0.256l-3.803-7.401c-0.508-0.998-1.73-1.395-2.728-0.889c-0.997,0.506-1.395,1.73-0.888,2.726  l3.803,7.398c0.146,0.286,0.038,0.637-0.244,0.791c-0.339,0.185-8.27,4.663-4.643,15.126c0.107,0.309-0.057,0.646-0.365,0.752  C43.168,77.031,43.103,77.042,43.038,77.042z"></path><path fill="#000000" d="M47.959,54.228c-0.209,0-0.41-0.114-0.513-0.309c-1.308-2.467,0.102-3.576,0.162-3.622  c0.255-0.193,0.621-0.145,0.814,0.112c0.191,0.252,0.145,0.609-0.1,0.805c-0.041,0.036-0.535,0.51-0.064,1.699l1.425-0.536  c0.299-0.113,0.635,0.039,0.749,0.339c0.112,0.3-0.039,0.635-0.339,0.749l-1.928,0.725C48.097,54.216,48.028,54.228,47.959,54.228z"></path></svg>